<svg version="1.2" xmlns="http://www.w3.org/2000/svg" viewBox="0 0 553 470" width="553" height="470">
	<title>shutterstock_1077564458-ai</title>
	<style>
		.s0 { fill: #6b7299 } 
		.s1 { fill: #dae3e8 } 
		.s2 { fill: #458bdd } 
		.s3 { fill: #c0e4f9 } 
		.s4 { fill: #ffffff } 
		.s5 { fill: #e6483f } 
		.s6 { fill: #334b60 } 
		.s7 { fill: #f7b95e } 
		.s8 { fill: #fce0e0 } 
		.s9 { fill: #24acba } 
		.s10 { fill: none;stroke: #334b60;stroke-width: .7;stroke-dasharray: 4,4,4,4,4,4 } 
	</style>
	<g id="Layer 1">
		<path id="&lt;Path&gt;" class="s0" d="m552.6 470h-552.6v-470.3h552.6z"/>
		<g id="&lt;Group&gt;">
			<g id="&lt;Group&gt;" style="opacity: .3;mix-blend-mode: screen">
				<path id="&lt;Path&gt;" class="s0" d="m479.7 238v0.2c0 11.6-9.4 21-21.1 21h-74.6c-11.6 0-21 9.4-21 21.1v0.2c0 11.6 9.4 21 21 21 11.6 0 21 9.4 21 21v0.2c0 11.7-9.4 21.1-21 21.1h-235c-11.6 0-21-9.4-21-21.1v-0.2c0-11.6 9.4-21 21-21h2.7c11.6 0 21-9.4 21-21v-0.2c0-11.7-9.4-21.1-21-21.1h-49c-11.7 0-21.1-9.4-21.1-21v-0.2c0-11.6 9.4-21.1 21.1-21.1h80.4c11.6 0 21-9.4 21-21v-0.2c0-11.6-9.4-21-21-21h-60.6c-11.6 0-21.1-9.5-21.1-21.1v-0.2c0-11.6 9.5-21 21.1-21h70.6c11.1 0 20.2-8.7 21-19.7 0-0.4 0-2.3 0-2.7 0.7-10.9 9.8-19.7 20.9-19.7h146c11.5 0 21 9.5 21 21.1 0 11.5-9.5 21-21 21h-24.5c-11.1 0-20.2 8.7-20.9 19.6-0.1 0.5-0.1 2.3 0 2.8 0.7 10.9 9.8 19.6 20.9 19.6l27.5 0.3c11.6 0 21 9.4 21 21v0.2c0 11.6 9.5 21 21.1 21h32.5c11.7 0 21.1 9.5 21.1 21.1z"/>
			</g>
			<g id="&lt;Group&gt;">
				<path id="&lt;Path&gt;" class="s1" d="m283.2 340.5h-43.8l3.2-20.8h37.4z"/>
			</g>
			<g id="&lt;Group&gt;">
				<path id="&lt;Path&gt;" class="s2" d="m415.9 154.6h-32.1v-15.9c0-8.8 7.2-16 16-16 8.9 0 16.1 7.2 16.1 16z"/>
			</g>
			<g id="&lt;Group&gt;" style="mix-blend-mode: multiply">
				<path id="&lt;Path&gt;" class="s3" d="m389.2 154.6h-5.4v-29h5.4z"/>
			</g>
			<g id="&lt;Group&gt;" style="mix-blend-mode: multiply">
				<path id="&lt;Path&gt;" class="s0" d="m434.6 345.8c0 4.7-77.6 8.5-173.3 8.5-95.7 0-173.3-3.8-173.3-8.5 0-4.7 77.6-5.9 173.3-5.9 95.7 0 173.3 1.2 173.3 5.9z"/>
			</g>
			<g id="&lt;Group&gt;">
				<g id="&lt;Group&gt;">
					<g id="&lt;Group&gt;">
						<path id="&lt;Path&gt;" class="s4" d="m86.2 199.9h-10.3v-2h10.3z"/>
					</g>
				</g>
				<g id="&lt;Group&gt;">
					<g id="&lt;Group&gt;">
						<path id="&lt;Path&gt;" class="s4" d="m82 204.1h-2v-10.4h2z"/>
					</g>
				</g>
			</g>
			<g id="&lt;Group&gt;">
				<g id="&lt;Group&gt;">
					<g id="&lt;Group&gt;">
						<path id="&lt;Path&gt;" class="s4" d="m448.5 320.9h-10.4v-2h10.4z"/>
					</g>
				</g>
				<g id="&lt;Group&gt;">
					<g id="&lt;Group&gt;">
						<path id="&lt;Path&gt;" class="s4" d="m444.3 325.1h-2v-10.4h2z"/>
					</g>
				</g>
			</g>
			<g id="&lt;Group&gt;">
				<g id="&lt;Group&gt;">
					<path id="&lt;Compound Path&gt;" fill-rule="evenodd" class="s4" d="m205.7 156.9v5.4c0 2.4-1.9 4.3-4.3 4.5v3.9l-3.9-3.9h-11.6c-2.5 0-4.6-2.1-4.6-4.5v-5.4c0-2.5 2.1-4.6 4.6-4.6h15.3c2.4 0 4.5 2.1 4.5 4.6zm-16.1 2.8c0-0.8-0.6-1.4-1.4-1.4-0.8 0-1.5 0.6-1.5 1.4 0 0.8 0.7 1.4 1.5 1.4 0.8 0 1.4-0.6 1.4-1.4zm5.3 0c0-0.8-0.6-1.4-1.4-1.4-0.8 0-1.4 0.6-1.4 1.4 0 0.8 0.6 1.4 1.4 1.4 0.8 0 1.4-0.6 1.4-1.4zm5.4 0c0-0.8-0.7-1.4-1.4-1.4-0.8 0-1.5 0.6-1.5 1.4 0 0.8 0.7 1.4 1.5 1.4 0.7 0 1.4-0.6 1.4-1.4z"/>
				</g>
			</g>
			<g id="&lt;Group&gt;" style="mix-blend-mode: screen">
				<g id="&lt;Group&gt;">
					<path id="&lt;Path&gt;" class="s4" d="m440.6 154.7h-1.9c0-2.1-1.8-3.9-3.9-3.9v-1.9c3.2 0 5.8 2.6 5.8 5.8z"/>
				</g>
				<g id="&lt;Group&gt;">
					<path id="&lt;Path&gt;" class="s4" d="m445.6 154.7h-1.9c0-4.9-4-8.9-8.9-8.9v-1.9c6 0 10.8 4.8 10.8 10.8z"/>
				</g>
				<g id="&lt;Group&gt;">
					<path id="&lt;Path&gt;" class="s4" d="m452 154.7h-1.9c0-8.4-6.9-15.3-15.3-15.3v-1.9c9.5 0 17.2 7.7 17.2 17.2z"/>
				</g>
			</g>
			<g id="&lt;Group&gt;" style="mix-blend-mode: screen">
				<g id="&lt;Group&gt;">
					<path id="&lt;Path&gt;" class="s4" d="m86.2 328.7h-1.9c0-3.2 2.6-5.8 5.8-5.8v1.9c-2.1 0-3.9 1.7-3.9 3.9z"/>
				</g>
				<g id="&lt;Group&gt;">
					<path id="&lt;Path&gt;" class="s4" d="m81.2 328.7h-1.9c0-6 4.8-10.8 10.8-10.8v1.9c-4.9 0-8.9 4-8.9 8.9z"/>
				</g>
				<g id="&lt;Group&gt;">
					<path id="&lt;Path&gt;" class="s4" d="m74.9 328.7h-1.9c0-9.5 7.7-17.2 17.1-17.2v1.9c-8.4 0-15.2 6.9-15.2 15.3z"/>
				</g>
			</g>
			<g id="&lt;Group&gt;">
				<path id="&lt;Path&gt;" class="s4" d="m153.4 117.1v-4.6h-3.2c-0.7 0-1.3 0.7-1.3 1.4v5.2h-4.5v-5.2c0-3.2 2.6-5.9 5.8-5.9h3.2v-4.7l12 6.9z"/>
			</g>
			<g id="&lt;Group&gt;">
				<g id="&lt;Group&gt;">
					<path id="&lt;Path&gt;" class="s4" d="m157.8 291.9c-0.4-1.1-0.8-2.2-1.2-3.3-1.1-0.4-2.2-0.8-3.3-1.2 1.1-0.4 2.2-0.8 3.3-1.2 0.4-1.1 0.8-2.2 1.2-3.3 0.4 1.1 0.8 2.2 1.2 3.3 1.1 0.4 2.2 0.8 3.3 1.2-1.1 0.4-2.2 0.8-3.3 1.2-0.4 1.1-0.8 2.2-1.2 3.3z"/>
				</g>
			</g>
			<g id="&lt;Group&gt;">
				<g id="&lt;Group&gt;">
					<path id="&lt;Path&gt;" class="s4" d="m396.3 226.2c-0.3-1.1-0.7-2.2-1.1-3.3-1.1-0.4-2.3-0.8-3.4-1.2 1.1-0.3 2.3-0.7 3.4-1.2 0.4-1.1 0.8-2.2 1.1-3.3 0.4 1.1 0.8 2.2 1.2 3.3 1.1 0.5 2.2 0.9 3.3 1.2-1.1 0.4-2.2 0.8-3.3 1.2-0.4 1.1-0.8 2.2-1.2 3.3z"/>
				</g>
			</g>
			<g id="&lt;Group&gt;">
				<path id="&lt;Path&gt;" class="s4" d="m458.9 244.4c-0.3 0.2-0.4 0.6-0.2 0.9l2.2 3.5c0.2 0.3 0.1 0.7-0.2 0.9l-2.7 1.7c-0.3 0.2-0.7 0.1-0.9-0.2l-2.2-3.5c-0.2-0.3-0.6-0.4-0.9-0.2l-2.8 1.8c-0.5 0.2-1 0-1-0.5l-2.1-16.1q0 0 0 0l13.6 8.8c0.4 0.3 0.4 0.8 0 1.1z"/>
			</g>
			<g id="&lt;Group&gt;">
				<g id="&lt;Group&gt;">
					<path id="&lt;Path&gt;" class="s4" d="m456.7 213.9h-48.1v-36.6h48.1z"/>
				</g>
				<g id="&lt;Group&gt;">
					<path id="&lt;Compound Path&gt;" fill-rule="evenodd" class="s5" d="m432.7 203.5c-5.7 0-10.4-4.7-10.4-10.4 0-5.7 4.7-10.4 10.4-10.4 5.7 0 10.4 4.7 10.4 10.4 0 5.7-4.7 10.4-10.4 10.4zm0-19.5c-5 0-9.1 4.1-9.1 9.1 0 5 4.1 9.1 9.1 9.1 5 0 9.1-4.1 9.1-9.1 0-5-4.1-9.1-9.1-9.1z"/>
				</g>
				<g id="&lt;Group&gt;">
					<path id="&lt;Path&gt;" class="s6" d="m455.1 212.2h-44.8v-4.5h44.8z"/>
				</g>
				<g id="&lt;Group&gt;">
					<path id="&lt;Path&gt;" class="s5" d="m438.4 193.7l-9 5.2v-10.4z"/>
				</g>
				<g id="&lt;Group&gt;">
					<g id="&lt;Group&gt;">
						<path id="&lt;Path&gt;" class="s4" d="m413.9 210l-1.8 1v-2.1z"/>
					</g>
					<g id="&lt;Group&gt;">
						<g id="&lt;Group&gt;">
							<path id="&lt;Path&gt;" class="s4" d="m416.3 210.6h-0.4v-1.2h0.4z"/>
						</g>
						<g id="&lt;Group&gt;">
							<path id="&lt;Path&gt;" class="s4" d="m417.6 208.8v2.4l-1.1-0.7v-1.1z"/>
						</g>
					</g>
				</g>
				<g id="&lt;Group&gt;">
					<path id="&lt;Compound Path&gt;" fill-rule="evenodd" class="s4" d="m452.8 210.1l0.2 0.2-0.3 0.5-0.3-0.1q-0.1 0.1-0.2 0.1v0.3h-0.7v-0.3q-0.1-0.1-0.2-0.1l-0.3 0.1-0.3-0.5 0.3-0.3q0 0 0 0 0-0.1 0-0.2l-0.3-0.2 0.3-0.5 0.4 0.1q0 0 0.1-0.1l0.1-0.3h0.6l0.1 0.4q0.1 0 0.1 0.1l0.3-0.2 0.4 0.6-0.3 0.2q0 0 0 0.1 0 0 0 0.1zm-0.5-0.1c0-0.2-0.2-0.4-0.4-0.4-0.2 0-0.4 0.2-0.4 0.4 0 0.2 0.2 0.4 0.4 0.4 0.2 0 0.4-0.2 0.4-0.4z"/>
				</g>
			</g>
			<g id="&lt;Group&gt;">
				<g id="&lt;Group&gt;">
					<path id="&lt;Path&gt;" class="s4" d="m441.3 303.9h-36.7c-2.3 0-4.2-1.8-4.2-4.1v-32.1h45.1v32.1c0 2.3-1.9 4.1-4.2 4.1z"/>
				</g>
				<g id="&lt;Group&gt;">
					<g id="&lt;Group&gt;">
						<path id="&lt;Path&gt;" class="s6" d="m415.4 275.6h-5.8l-4.7-7.9h5.9z"/>
					</g>
					<g id="&lt;Group&gt;">
						<path id="&lt;Path&gt;" class="s6" d="m424.5 275.6h-5.9l-4.6-7.9h5.9z"/>
					</g>
					<g id="&lt;Group&gt;">
						<path id="&lt;Path&gt;" class="s6" d="m433.5 275.6h-5.8l-4.7-7.9h5.9z"/>
					</g>
					<g id="&lt;Group&gt;">
						<path id="&lt;Path&gt;" class="s6" d="m442.6 275.6h-5.9l-4.6-7.9h5.9z"/>
					</g>
					<g id="&lt;Group&gt;">
						<path id="&lt;Path&gt;" class="s6" d="m401.8 267.7l4.6 7.9h-5.9l-0.1-0.2v-7.7z"/>
					</g>
					<g id="&lt;Group&gt;">
						<path id="&lt;Path&gt;" class="s6" d="m445.5 267.7v7.4l-4.4-7.4z"/>
					</g>
				</g>
				<g id="&lt;Group&gt;">
					<path id="&lt;Path&gt;" class="s1" d="m445.5 276.4h-45.1v-1h45.1z"/>
				</g>
				<g id="&lt;Group&gt;">
					<path id="&lt;Path&gt;" class="s7" d="m429.7 300.2l-6.8-3.4-6.7 3.4 1.2-7.5-5.4-5.3 7.5-1.2 3.5-6.8 3.4 6.8 7.5 1.2-5.4 5.3z"/>
				</g>
			</g>
			<g id="&lt;Group&gt;">
				<g id="&lt;Group&gt;">
					<path id="&lt;Path&gt;" class="s4" d="m153.9 184.6h-34.2v-27.6h34.2z"/>
				</g>
				<g id="&lt;Group&gt;">
					<path id="&lt;Path&gt;" class="s5" d="m143.5 171.1l-11.7 6.7v-13.5z"/>
				</g>
				<g id="&lt;Group&gt;">
					<path id="&lt;Path&gt;" class="s6" d="m155.8 193.9h-1.9v-46.2h1.9z"/>
				</g>
				<g id="&lt;Group&gt;">
					<path id="&lt;Path&gt;" class="s6" d="m162.5 193.9h-1.9v-46.2h1.9z"/>
				</g>
				<g id="&lt;Group&gt;">
					<g id="&lt;Group&gt;">
						<path id="&lt;Path&gt;" class="s6" d="m162.3 150.2v2h-8.4v-2z"/>
					</g>
					<g id="&lt;Group&gt;">
						<path id="&lt;Path&gt;" class="s6" d="m162.3 156.8v1.9h-8.4v-1.9z"/>
					</g>
					<g id="&lt;Group&gt;">
						<path id="&lt;Path&gt;" class="s6" d="m162.3 163.3v1.9h-8.4v-1.9z"/>
					</g>
					<g id="&lt;Group&gt;">
						<path id="&lt;Path&gt;" class="s6" d="m162.3 169.8v2h-8.4v-2z"/>
					</g>
					<g id="&lt;Group&gt;">
						<path id="&lt;Path&gt;" class="s6" d="m162.3 176.4v1.9h-8.4v-1.9z"/>
					</g>
					<g id="&lt;Group&gt;">
						<path id="&lt;Path&gt;" class="s6" d="m162.3 182.9v1.9h-8.4v-1.9z"/>
					</g>
					<g id="&lt;Group&gt;">
						<path id="&lt;Path&gt;" class="s6" d="m162.3 189.4v2h-8.4v-2z"/>
					</g>
				</g>
				<g id="&lt;Group&gt;">
					<path id="&lt;Path&gt;" class="s6" d="m113.3 193.9h-2v-46.2h2z"/>
				</g>
				<g id="&lt;Group&gt;">
					<path id="&lt;Path&gt;" class="s6" d="m120 193.9h-2v-46.2h2z"/>
				</g>
				<g id="&lt;Group&gt;">
					<g id="&lt;Group&gt;">
						<path id="&lt;Path&gt;" class="s6" d="m119.7 150.2v2h-8.4v-2z"/>
					</g>
					<g id="&lt;Group&gt;">
						<path id="&lt;Path&gt;" class="s6" d="m119.7 156.8v1.9h-8.4v-1.9z"/>
					</g>
					<g id="&lt;Group&gt;">
						<path id="&lt;Path&gt;" class="s6" d="m119.7 163.3v1.9h-8.4v-1.9z"/>
					</g>
					<g id="&lt;Group&gt;">
						<path id="&lt;Path&gt;" class="s6" d="m119.7 169.8v2h-8.4v-2z"/>
					</g>
					<g id="&lt;Group&gt;">
						<path id="&lt;Path&gt;" class="s6" d="m119.7 176.4v1.9h-8.4v-1.9z"/>
					</g>
					<g id="&lt;Group&gt;">
						<path id="&lt;Path&gt;" class="s6" d="m119.7 182.9v1.9h-8.4v-1.9z"/>
					</g>
					<g id="&lt;Group&gt;">
						<path id="&lt;Path&gt;" class="s6" d="m119.7 189.4v2h-8.4v-2z"/>
					</g>
				</g>
			</g>
			<g id="&lt;Group&gt;">
				<g id="&lt;Group&gt;">
					<path id="&lt;Path&gt;" class="s4" d="m143.3 293.8h-41.8v-51.3h41.8z"/>
				</g>
				<g id="&lt;Group&gt;" style="mix-blend-mode: multiply">
					<path id="&lt;Path&gt;" class="s1" d="m140 250.9v42.9h-1.8v-41.4l-6.5-6.6h-30.2v-1.5h32z"/>
				</g>
				<g id="&lt;Group&gt;">
					<path id="&lt;Path&gt;" class="s4" d="m138.2 252.4v44.8h-41.8v-51.4h35.3z"/>
				</g>
				<g id="&lt;Group&gt;">
					<path id="&lt;Path&gt;" class="s1" d="m134.3 257.8h-20.8v-1.4h20.8z"/>
				</g>
				<g id="&lt;Group&gt;">
					<path id="&lt;Path&gt;" class="s1" d="m134.3 260.5h-20.8v-1.4h20.8z"/>
				</g>
				<g id="&lt;Group&gt;">
					<path id="&lt;Path&gt;" class="s1" d="m134.3 263.1h-20.8v-1.3h20.8z"/>
				</g>
				<g id="&lt;Group&gt;">
					<path id="&lt;Path&gt;" class="s1" d="m134.3 265.8h-20.8v-1.4h20.8z"/>
				</g>
				<g id="&lt;Group&gt;">
					<path id="&lt;Path&gt;" class="s2" d="m117.1 270.6h-14v-1.3h14z"/>
				</g>
				<g id="&lt;Group&gt;">
					<path id="&lt;Path&gt;" class="s2" d="m128.4 270.6h-9.3v-1.3h9.3z"/>
				</g>
				<g id="&lt;Group&gt;">
					<path id="&lt;Path&gt;" class="s2" d="m127.9 252.9h-13.9v-1.3h13.9z"/>
				</g>
				<g id="&lt;Group&gt;">
					<path id="&lt;Path&gt;" class="s1" d="m134.3 275.1h-35.2v-1.4h35.2z"/>
				</g>
				<g id="&lt;Group&gt;">
					<path id="&lt;Path&gt;" class="s1" d="m134.3 277.7h-35.2v-1.4h35.2z"/>
				</g>
				<g id="&lt;Group&gt;">
					<path id="&lt;Path&gt;" class="s1" d="m113.1 280.4h-14v-1.4h14z"/>
				</g>
				<g id="&lt;Group&gt;">
					<path id="&lt;Path&gt;" class="s1" d="m113.1 283h-14v-1.3h14z"/>
				</g>
				<g id="&lt;Group&gt;">
					<path id="&lt;Path&gt;" class="s1" d="m113.1 287h-14v-1.3h14z"/>
				</g>
				<g id="&lt;Group&gt;">
					<path id="&lt;Path&gt;" class="s1" d="m113.1 289.7h-14v-1.4h14z"/>
				</g>
				<g id="&lt;Group&gt;">
					<path id="&lt;Path&gt;" class="s1" d="m113.1 292.4h-14v-1.4h14z"/>
				</g>
				<g id="&lt;Group&gt;">
					<path id="&lt;Path&gt;" class="s3" d="m135.3 292.4h-18.1v-12h18.1z"/>
				</g>
				<g id="&lt;Group&gt;">
					<path id="&lt;Path&gt;" class="s1" d="m138.2 252.4h-6.5v-6.6z"/>
				</g>
				<g id="&lt;Group&gt;">
					<g id="&lt;Group&gt;">
						<path id="&lt;Compound Path&gt;" fill-rule="evenodd" class="s6" d="m99.1 264.7l5-12.6h1.8l4.9 12.6h-1.9l-1.4-3.4h-5.3l-1.4 3.4zm3.6-4.8h4.3l-2.2-5.4z"/>
					</g>
				</g>
			</g>
			<g id="&lt;Group&gt;">
				<g id="&lt;Group&gt;">
					<g id="&lt;Group&gt;">
						<path id="&lt;Path&gt;" class="s4" d="m248.6 116.6h-48.1v-36.6h48.1z"/>
					</g>
					<g id="&lt;Group&gt;">
						<path id="&lt;Path&gt;" class="s3" d="m242.7 111.2h-36.2v-25.8h36.2z"/>
					</g>
					<g id="&lt;Group&gt;">
						<circle id="&lt;Path&gt;" class="s7" cx="225.5" cy="91.4" r="2.4"/>
					</g>
					<g id="&lt;Group&gt;">
						<path id="&lt;Path&gt;" class="s2" d="m206.5 99.7l8.1-8.1 12.4 12.3 6.9-6.9 8.8 8.7v5.5h-36.2z"/>
					</g>
				</g>
				<g id="&lt;Group&gt;">
					<g id="&lt;Group&gt;">
						<path id="&lt;Path&gt;" class="s4" d="m235.7 127.6h-48.1v-36.6h48.1z"/>
					</g>
					<g id="&lt;Group&gt;">
						<path id="&lt;Path&gt;" class="s3" d="m229.7 122.2h-36.2v-25.8h36.2z"/>
					</g>
					<g id="&lt;Group&gt;">
						<circle id="&lt;Path&gt;" class="s8" cx="212.6" cy="102.4" r="2.4"/>
					</g>
					<g id="&lt;Group&gt;">
						<path id="&lt;Path&gt;" class="s9" d="m193.5 110.8l8.2-8.2 12.4 12.4 6.9-7 8.7 8.7v5.5h-36.2z"/>
					</g>
				</g>
			</g>
			<g id="&lt;Group&gt;">
				<rect id="&lt;Path&gt;" class="s8" x="351.8" y="124.9" width="32.1" height="134.8" rx="16"></rect>
			</g>
			<g id="&lt;Group&gt;">
				<path id="&lt;Path&gt;" class="s3" d="m331.7 259h-17v-17.6h17z"/>
			</g>
			<g id="&lt;Group&gt;">
				<path id="&lt;Path&gt;" class="s2" d="m367.8 259.7h-114.1c-8.8 0-16-7.2-16-16.1v-32.8h114.1v32.8c0 8.9 7.1 16.1 16 16.1z"/>
			</g>
			<g id="&lt;Group&gt;">
				<path id="&lt;Path&gt;" class="s3" d="m364.2 259.6v0.1h-1q0.5 0 1-0.1z"/>
			</g>
			<g id="&lt;Group&gt;">
				<g id="&lt;Group&gt;">
					<path id="&lt;Path&gt;" class="s8" d="m399.8 122.7c-8.8 0-16 7.2-16 16v62.8h-82v40c0 8.8-7.2 16-16 16-8.9 0-16.1-7.2-16.1-16v-102.8c0-8.8 7.2-16 16.1-16z"/>
				</g>
				<g id="&lt;Group&gt;">
					<path id="&lt;Path&gt;" class="s8" d="m400.8 122.7q-0.5 0-1 0z"/>
				</g>
			</g>
			<g id="&lt;Group&gt;">
				<path id="&lt;Path&gt;" class="s2" d="m351.8 196.3v45.1h-15-17.1v-45.1c0-8.8 7.2-16 16.1-16q0.5 0 1 0c8.4 0.5 15 7.5 15 16z"/>
			</g>
			<g id="&lt;Group&gt;">
				<path id="&lt;Path&gt;" class="s4" d="m338.7 180.3q-0.5 0-1 0z"/>
			</g>
			<g id="&lt;Group&gt;">
				<g id="&lt;Group&gt;">
					<rect id="&lt;Path&gt;" class="s6" x="180.5" y="206.1" width="161.5" height="113.8" rx="4.5"></rect>
				</g>
				<g id="&lt;Group&gt;">
					<path id="&lt;Compound Path&gt;" fill-rule="evenodd" class="s4" d="m337.7 321.1h-152.9c-3 0-5.5-2.5-5.5-5.5v-105.2c0-3.1 2.5-5.6 5.5-5.6h152.9c3.1 0 5.6 2.5 5.6 5.6v105.2c0 3-2.5 5.5-5.6 5.5zm-152.9-113.8c-1.7 0-3 1.4-3 3.1v105.2c0 1.7 1.3 3 3 3h152.9c1.7 0 3.1-1.3 3.1-3v-105.2c0-1.7-1.4-3.1-3.1-3.1z"/>
				</g>
			</g>
			<g id="&lt;Group&gt;">
				<path id="&lt;Path&gt;" class="s3" d="m329.6 306.7h-136.6v-89.2h136.6z"/>
			</g>
			<g id="&lt;Group&gt;" style="mix-blend-mode: multiply">
				<path id="&lt;Path&gt;" class="s3" d="m325.1 306.7h-5.4v-125.8h5.4z"/>
			</g>
			<g id="&lt;Group&gt;">
				<path id="&lt;Path&gt;" class="s4" d="m319.7 196.3v62.7 44.9h-114.1v-107.6c0-8.8 7.2-16 16-16h114.1c-8.8 0-16 7.2-16 16z"/>
			</g>
			<g id="&lt;Group&gt;">
				<path id="&lt;Path&gt;" class="s10" d=""/>
			</g>
			<g id="&lt;Group&gt;">
				<circle id="&lt;Path&gt;" class="s6" cx="305.5" cy="285.8" r="3.7"/>
			</g>
			<g id="&lt;Group&gt;">
				<circle id="&lt;Path&gt;" class="s9" cx="225.5" cy="206.1" r="3.7"/>
			</g>
			<g id="&lt;Group&gt;">
				<circle id="&lt;Path&gt;" class="s3" cx="225.5" cy="271.6" r="3.7"/>
			</g>
			<g id="&lt;Group&gt;">
				<g id="&lt;Group&gt;">
					<path id="&lt;Path&gt;" class="s3" d="m270.6 191.7h-32.7v-3.3h32.7z"/>
				</g>
				<g id="&lt;Group&gt;">
					<path id="&lt;Path&gt;" class="s3" d="m263.1 197.8h-32.6v-3.3h32.6z"/>
				</g>
				<g id="&lt;Group&gt;">
					<path id="&lt;Path&gt;" class="s3" d="m285.7 197.8h-19.7v-3.3h19.7z"/>
				</g>
			</g>
			<g id="&lt;Group&gt;">
				<g id="&lt;Group&gt;">
					<path id="&lt;Path&gt;" class="s3" d="m247.7 221.7h-32.7v-19.3h32.7z"/>
				</g>
				<g id="&lt;Group&gt;">
					<path id="&lt;Path&gt;" class="s4" d="m247.5 222l-32.7-19.3 0.4-0.6 32.7 19.3z"/>
				</g>
				<g id="&lt;Group&gt;">
					<path id="&lt;Path&gt;" class="s4" d="m215.2 222l-0.4-0.6 32.7-19.3 0.4 0.6z"/>
				</g>
			</g>
			<g id="&lt;Group&gt;">
				<path id="&lt;Path&gt;" class="s8" d="m247.7 294.6h-32.7v-43h32.7z"/>
			</g>
			<g id="&lt;Group&gt;">
				<path id="&lt;Path&gt;" class="s3" d="m247.7 247.5h-32.7v-20.9h32.7z"/>
			</g>
			<g id="&lt;Group&gt;">
				<g id="&lt;Group&gt;">
					<path id="&lt;Path&gt;" class="s3" d="m315.8 229h-24.5v-1.8h24.5z"/>
				</g>
				<g id="&lt;Group&gt;">
					<path id="&lt;Path&gt;" class="s3" d="m315.8 232.6h-24.5v-1.9h24.5z"/>
				</g>
				<g id="&lt;Group&gt;">
					<path id="&lt;Path&gt;" class="s3" d="m315.8 236.2h-24.5v-1.9h24.5z"/>
				</g>
				<g id="&lt;Group&gt;">
					<path id="&lt;Path&gt;" class="s3" d="m315.8 239.7h-24.5v-1.8h24.5z"/>
				</g>
				<g id="&lt;Group&gt;">
					<path id="&lt;Path&gt;" class="s3" d="m315.8 243.3h-24.5v-1.8h24.5z"/>
				</g>
				<g id="&lt;Group&gt;">
					<path id="&lt;Path&gt;" class="s3" d="m315.8 246.9h-24.5v-1.8h24.5z"/>
				</g>
			</g>
			<g id="&lt;Group&gt;">
				<g id="&lt;Group&gt;">
					<path id="&lt;Path&gt;" class="s3" d="m285.7 204h-30.1v-1.8h30.1z"/>
				</g>
				<g id="&lt;Group&gt;">
					<path id="&lt;Path&gt;" class="s3" d="m285.7 207.6h-30.1v-1.8h30.1z"/>
				</g>
				<g id="&lt;Group&gt;">
					<path id="&lt;Path&gt;" class="s3" d="m285.7 211.2h-30.1v-1.8h30.1z"/>
				</g>
				<g id="&lt;Group&gt;">
					<path id="&lt;Path&gt;" class="s3" d="m285.7 214.8h-30.1v-1.8h30.1z"/>
				</g>
				<g id="&lt;Group&gt;">
					<path id="&lt;Path&gt;" class="s3" d="m285.7 218.4h-30.1v-1.9h30.1z"/>
				</g>
				<g id="&lt;Group&gt;">
					<path id="&lt;Path&gt;" class="s3" d="m285.7 221.9h-30.1v-1.8h30.1z"/>
				</g>
			</g>
			<g id="&lt;Group&gt;">
				<g id="&lt;Group&gt;">
					<path id="&lt;Path&gt;" class="s8" d="m315.8 208.9h-24.5v-1.8h24.5z"/>
				</g>
				<g id="&lt;Group&gt;">
					<path id="&lt;Path&gt;" class="s8" d="m315.8 212.5h-24.5v-1.8h24.5z"/>
				</g>
			</g>
			<g id="&lt;Group&gt;">
				<g id="&lt;Group&gt;">
					<path id="&lt;Path&gt;" class="s3" d="m285.7 280.2h-30.7v-1.8h30.7z"/>
				</g>
				<g id="&lt;Group&gt;">
					<path id="&lt;Path&gt;" class="s3" d="m285.7 283.8h-30.7v-1.8h30.7z"/>
				</g>
				<g id="&lt;Group&gt;">
					<path id="&lt;Path&gt;" class="s3" d="m285.7 287.4h-30.7v-1.8h30.7z"/>
				</g>
				<g id="&lt;Group&gt;">
					<path id="&lt;Path&gt;" class="s3" d="m285.7 291h-30.7v-1.8h30.7z"/>
				</g>
				<g id="&lt;Group&gt;">
					<path id="&lt;Path&gt;" class="s3" d="m285.7 294.6h-30.7v-1.9h30.7z"/>
				</g>
			</g>
			<g id="&lt;Group&gt;">
				<path id="&lt;Path&gt;" class="s8" d="m315.8 202.8h-24.5v-14.4h24.5z"/>
			</g>
			<g id="&lt;Group&gt;">
				<g id="&lt;Group&gt;">
					<path id="&lt;Path&gt;" class="s8" d="m315.8 294.6h-24.5v-16.2h24.5z"/>
				</g>
				<g id="&lt;Group&gt;">
					<path id="&lt;Path&gt;" class="s4" d="m303.6 281.1l1.7 3.5 4 0.6-2.9 2.8 0.7 3.9-3.5-1.8-3.5 1.8 0.6-3.9-2.8-2.8 3.9-0.6z"/>
				</g>
			</g>
			<g id="&lt;Group&gt;">
				<path id="&lt;Path&gt;" class="s4" d="m235.9 237l-7.8 4.5v-9z"/>
			</g>
			<g id="&lt;Group&gt;">
				<g id="&lt;Group&gt;">
					<path id="&lt;Path&gt;" class="s3" d="m285.7 246.9h-30.7v-19.7h30.7z"/>
				</g>
				<g id="&lt;Group&gt;">
					<path id="&lt;Path&gt;" class="s4" d="m275.6 237.9l-7.8 4.5v-9z"/>
				</g>
			</g>
			<g id="&lt;Group&gt;">
				<g id="&lt;Group&gt;">
					<path id="&lt;Path&gt;" class="s3" d="m312.4 222.6h-17.6c-1.9 0-3.5-1.5-3.5-3.4 0-2 1.6-3.5 3.5-3.5h17.6c1.9 0 3.4 1.5 3.4 3.5 0 1.9-1.5 3.4-3.4 3.4z"/>
				</g>
				<g id="&lt;Group&gt;">
					<g id="&lt;Group&gt;">
						<path id="&lt;Path&gt;" class="s4" d="m303 221h-1.2v-3.6h1.2z"/>
					</g>
					<g id="&lt;Group&gt;">
						<path id="&lt;Path&gt;" class="s4" d="m305.4 221h-1.2v-3.6h1.2z"/>
					</g>
				</g>
			</g>
			<g id="&lt;Group&gt;">
				<g id="&lt;Group&gt;">
					<path id="&lt;Path&gt;" class="s6" d="m399.7 286.4h-1.9v-1.3h1.9z"/>
				</g>
				<g id="&lt;Group&gt;">
					<path id="&lt;Compound Path&gt;" class="s6" d="m394.1 286.4h-3.7v-1.3h3.7zm-7.4 0h-3.7v-1.3h3.7z"/>
				</g>
				<g id="&lt;Group&gt;">
					<path id="&lt;Compound Path&gt;" class="s6" d="m379.2 286.4h-3.7v-1.3h3.7zm-7.4 0h-3.7v-1.3h3.7zm-7.4 0h-3.7v-1.3h3.7zm-7.4 0h-3.7v-1.3h3.7zm-7.4 0h-3.7v-1.3h3.7zm-7.4 0h-3.7v-1.3h3.7zm-7.4 0h-3.7v-1.3h3.7zm-7.4 0h-3.7v-1.3h3.7zm-7.4 0h-3.7v-1.3h3.7z"/>
				</g>
				<g id="&lt;Group&gt;">
					<path id="&lt;Path&gt;" class="s6" d="m312.5 286.4h-1.9v-1.3h1.9z"/>
				</g>
			</g>
			<g id="&lt;Group&gt;">
				<g id="&lt;Group&gt;">
					<path id="&lt;Path&gt;" class="s6" d="m147.4 272.3h-2v-1.4h2z"/>
				</g>
				<g id="&lt;Group&gt;">
					<path id="&lt;Compound Path&gt;" class="s6" d="m165.3 272.3h-4.5v-1.4h4.5zm-8.9 0h-4.5v-1.3h4.5z"/>
				</g>
				<g id="&lt;Group&gt;">
					<path id="&lt;Compound Path&gt;" class="s6" d="m219.1 272.3h-4.5v-1.4h4.5zm-9 0h-4.5v-1.3h4.5zm-8.9 0h-4.5v-1.3h4.5zm-9 0h-4.5v-1.3h4.5zm-9 0h-4.4v-1.3h4.4zm-8.9 0h-4.5v-1.3h4.5z"/>
				</g>
				<g id="&lt;Group&gt;">
					<path id="&lt;Path&gt;" class="s6" d="m225.5 272.3h-2v-1.4h2z"/>
				</g>
			</g>
			<g id="&lt;Group&gt;">
				<g id="&lt;Group&gt;">
					<path id="&lt;Path&gt;" class="s6" d="m226.2 134.9h-1.3v-1.9h1.3z"/>
				</g>
				<g id="&lt;Group&gt;">
					<path id="&lt;Compound Path&gt;" class="s6" d="m226.2 152.5h-1.3v-4.4h1.3zm0-8.8h-1.3v-4.4h1.3z"/>
				</g>
				<g id="&lt;Group&gt;">
					<path id="&lt;Compound Path&gt;" class="s6" d="m226.2 205.2h-1.3v-4.4h1.3zm0-8.8h-1.3v-4.4h1.3zm0-8.7h-1.3v-4.4h1.3zm0-8.8h-1.3v-4.4h1.3zm0-8.8h-1.3v-4.4h1.3zm0-8.8h-1.3v-4.4h1.3z"/>
				</g>
				<g id="&lt;Group&gt;">
					<path id="&lt;Path&gt;" class="s6" d="m226.2 211.6h-1.3v-2h1.3z"/>
				</g>
			</g>
			<g id="&lt;Group&gt;">
				<g id="&lt;Group&gt;">
					<path id="&lt;Path&gt;" class="s6" d="m282.6 237.9h-2v-1.3h2z"/>
				</g>
				<g id="&lt;Group&gt;">
					<path id="&lt;Compound Path&gt;" class="s6" d="m297.1 237.9h-3.6v-1.3h3.6zm-7.2 0h-3.7v-1.3h3.7z"/>
				</g>
				<g id="&lt;Group&gt;">
					<path id="&lt;Compound Path&gt;" class="s6" d="m427.9 237.9h-3.6v-1.3h3.6zm-7.2 0h-3.7v-1.3h3.7zm-7.3 0h-3.6v-1.3h3.6zm-7.3 0h-3.6v-1.3h3.6zm-7.2 0h-3.7v-1.3h3.7zm-7.3 0h-3.6v-1.3h3.6zm-7.3 0h-3.6v-1.3h3.6zm-7.2 0h-3.7v-1.4h3.7zm-7.3 0h-3.6v-1.3h3.6zm-7.3 0h-3.6v-1.3h3.6zm-7.2 0h-3.7v-1.3h3.7zm-7.3 0h-3.6v-1.3h3.6zm-7.3 0h-3.6v-1.3h3.6zm-7.2 0h-3.7v-1.3h3.7zm-7.3 0h-3.6v-1.3h3.6zm-7.3 0h-3.6v-1.3h3.6zm-7.2 0h-3.7v-1.3h3.7zm-7.3 0h-3.6v-1.3h3.6z"/>
				</g>
				<g id="&lt;Group&gt;">
					<path id="&lt;Path&gt;" class="s6" d="m434.2 237.9h-2.6v-1.3h1.3v-1.3h1.3z"/>
				</g>
				<g id="&lt;Group&gt;">
					<path id="&lt;Compound Path&gt;" class="s6" d="m434.2 233.1h-1.3v-2.2h1.3zm0-4.4h-1.3v-2.2h1.3z"/>
				</g>
				<g id="&lt;Group&gt;">
					<path id="&lt;Compound Path&gt;" class="s6" d="m434.2 224.3h-1.3v-2.2h1.3zm0-4.4h-1.3v-2.2h1.3zm0-4.4h-1.3v-2.2h1.3z"/>
				</g>
				<g id="&lt;Group&gt;">
					<path id="&lt;Path&gt;" class="s6" d="m434.2 211.1h-1.3v-2h1.3z"/>
				</g>
			</g>
			<g id="&lt;Group&gt;">
				<g id="&lt;Group&gt;">
					<path id="&lt;Path&gt;" class="s6" d="m304.2 215.7h-1.3v-2h1.3z"/>
				</g>
				<g id="&lt;Group&gt;">
					<path id="&lt;Compound Path&gt;" class="s6" d="m304.2 209.9h-1.3v-3.8h1.3zm0-7.5h-1.3v-3.8h1.3z"/>
				</g>
				<g id="&lt;Group&gt;">
					<path id="&lt;Compound Path&gt;" class="s6" d="m304.2 194.8h-1.3v-3.8h1.3zm0-7.6h-1.3v-3.8h1.3zm0-7.5h-1.3v-3.8h1.3zm0-7.6h-1.3v-3.8h1.3zm0-7.6h-1.3v-3.7h1.3zm0-7.6h-1.3v-3.8h1.3zm0-7.6h-1.3v-3.8h1.3zm0-7.5h-1.3v-3.8h1.3zm0-7.6h-1.3v-3.8h1.3zm0-7.6h-1.3v-3.7h1.3zm0-7.6h-1.3v-3.8h1.3zm0-7.6h-1.3v-3.8h1.3z"/>
				</g>
				<g id="&lt;Group&gt;">
					<path id="&lt;Path&gt;" class="s6" d="m304.2 103.9h-1.3v-2.6h2.6v1.3h-1.3z"/>
				</g>
				<g id="&lt;Group&gt;">
					<path id="&lt;Compound Path&gt;" class="s6" d="m316.9 102.6h-2.9v-1.3h2.9zm-5.7 0h-2.8v-1.3h2.8z"/>
				</g>
				<g id="&lt;Group&gt;">
					<path id="&lt;Compound Path&gt;" class="s6" d="m333.9 102.6h-2.9v-1.3h2.9zm-5.7 0h-2.8v-1.3h2.8zm-5.7 0h-2.8v-1.3h2.8z"/>
				</g>
				<g id="&lt;Group&gt;">
					<path id="&lt;Path&gt;" class="s6" d="m338.7 102.6h-2v-1.3h2z"/>
				</g>
			</g>
			<g id="&lt;Group&gt;">
				<g id="&lt;Group&gt;">
					<path id="&lt;Path&gt;" class="s6" d="m137 192h-1.3v-1.9h1.3z"/>
				</g>
				<g id="&lt;Group&gt;">
					<path id="&lt;Compound Path&gt;" class="s6" d="m137 204.8h-1.3v-3.2h1.3zm0-6.4h-1.3v-3.2h1.3z"/>
				</g>
				<g id="&lt;Group&gt;">
					<path id="&lt;Compound Path&gt;" class="s6" d="m137 224h-1.3v-3.2h1.3zm0-6.4h-1.3v-3.2h1.3zm0-6.4h-1.3v-3.2h1.3z"/>
				</g>
				<g id="&lt;Group&gt;">
					<path id="&lt;Path&gt;" class="s6" d="m138.3 229.8h-2.6v-2.6h1.3v1.3h1.3z"/>
				</g>
				<g id="&lt;Group&gt;">
					<path id="&lt;Compound Path&gt;" class="s6" d="m153.1 229.8h-3.7v-1.3h3.7zm-7.4 0h-3.7v-1.3h3.7z"/>
				</g>
				<g id="&lt;Group&gt;">
					<path id="&lt;Compound Path&gt;" class="s6" d="m219.6 229.8h-3.7v-1.3h3.7zm-7.4 0h-3.7v-1.3h3.7zm-7.4 0h-3.7v-1.3h3.7zm-7.4 0h-3.7v-1.3h3.7zm-7.4 0h-3.7v-1.3h3.7zm-7.4 0h-3.7v-1.3h3.7zm-7.4 0h-3.6v-1.3h3.6zm-7.3 0h-3.7v-1.4h3.7zm-7.4 0h-3.7v-1.3h3.7z"/>
				</g>
				<g id="&lt;Group&gt;">
					<path id="&lt;Path&gt;" class="s6" d="m225.2 229.8h-1.9v-1.3h1.9z"/>
				</g>
			</g>
			<g id="&lt;Group&gt;">
				<g id="&lt;Group&gt;">
					<circle id="&lt;Path&gt;" class="s7" cx="354.3" cy="100" r="17.4"/>
				</g>
				<g id="&lt;Group&gt;">
					<path id="&lt;Path&gt;" class="s4" d="m363.3 100l-14.4 8.4v-16.7z"/>
				</g>
			</g>
			<g id="&lt;Group&gt;">
				<path id="&lt;Path&gt;" class="s4" d="m337.3 319.9h-152.1c-2.6 0-4.7-2.1-4.7-4.7v-8.5h161.5v8.5c0 2.6-2.1 4.7-4.7 4.7z"/>
			</g>
			<g id="&lt;Group&gt;">
				<path id="&lt;Path&gt;" class="s8" d="m315.8 274.4h-60.8v-22.8h60.8z"/>
			</g>
			<g id="&lt;Group&gt;">
				<path id="&lt;Path&gt;" class="s4" d="m293.1 344.1h-63.6c-1.2 0-2.1-0.9-2.1-2 0-1.2 0.9-2.1 2.1-2.1h63.6c1.1 0 2 0.9 2 2.1 0 1.1-0.9 2-2 2z"/>
			</g>
			<g id="&lt;Group&gt;" style="mix-blend-mode: multiply">
				<path id="&lt;Path&gt;" class="s1" d="m280.2 321l0.7 4.7h-39.3l0.8-4.7z"/>
			</g>
			<g id="&lt;Group&gt;">
				<path id="&lt;Compound Path&gt;" fill-rule="evenodd" class="s4" d="m280.3 106.6l1.5 1.2-1.8 3.1-1.9-0.7q-0.5 0.3-1 0.5l-0.3 1.9h-3.6l-0.4-2.1q-0.5-0.2-0.9-0.5l-1.8 0.6-1.8-3.1 1.6-1.3q0-0.2 0-0.4 0-0.3 0.1-0.7l-1.5-1.2 1.8-3.1 1.9 0.7q0.5-0.3 1-0.5l0.3-1.9h3.6l0.4 2q0.5 0.3 0.9 0.6l1.8-0.6 1.8 3.1-1.6 1.3q0 0.2 0 0.3 0 0.4-0.1 0.8zm-2.9-0.8c0-1.2-1-2.2-2.2-2.2-1.3 0-2.3 1-2.3 2.2 0 1.3 1 2.3 2.3 2.3 1.2 0 2.2-1 2.2-2.3z"/>
			</g>
			<g id="&lt;Group&gt;">
				<g id="&lt;Group&gt;">
					<path id="&lt;Path&gt;" class="s0" d="m358.6 146c-0.4-1.2-0.8-2.3-1.2-3.5-1.1-0.4-2.3-0.8-3.4-1.2 1.1-0.3 2.3-0.8 3.4-1.2 0.4-1.1 0.8-2.2 1.2-3.4 0.4 1.2 0.8 2.3 1.2 3.4 1.1 0.4 2.3 0.9 3.4 1.2-1.1 0.4-2.3 0.8-3.4 1.2-0.4 1.2-0.8 2.3-1.2 3.5z"/>
				</g>
			</g>
			<g id="&lt;Group&gt;">
				<g id="&lt;Group&gt;">
					<path id="&lt;Path&gt;" class="s0" d="m153.3 323.5c-0.4-1.1-0.8-2.3-1.2-3.4-1.1-0.4-2.3-0.8-3.4-1.2 1.1-0.4 2.3-0.8 3.4-1.2 0.4-1.1 0.8-2.3 1.2-3.4 0.4 1.1 0.8 2.3 1.2 3.4 1.2 0.4 2.3 0.8 3.4 1.2-1.1 0.4-2.2 0.8-3.4 1.2-0.4 1.1-0.8 2.3-1.2 3.4z"/>
				</g>
			</g>
			<g id="&lt;Group&gt;">
				<g id="&lt;Group&gt;">
					<path id="&lt;Compound Path&gt;" fill-rule="evenodd" class="s4" d="m417.5 97.2h12.6c2.1 0 3.7 1.7 3.7 3.8v4.4c0 2.1-1.6 3.7-3.7 3.7h-9.6l-3.2 3.3v-3.3c-2-0.1-3.5-1.7-3.5-3.7v-4.4c0-2.1 1.6-3.8 3.7-3.8zm10.7 7.3c0.7 0 1.2-0.6 1.2-1.2 0-0.7-0.5-1.2-1.2-1.2-0.6 0-1.2 0.5-1.2 1.2 0 0.6 0.6 1.2 1.2 1.2zm-4.4 0c0.6 0 1.2-0.6 1.2-1.2 0-0.7-0.6-1.2-1.2-1.2-0.7 0-1.2 0.5-1.2 1.2 0 0.6 0.5 1.2 1.2 1.2zm-4.4 0c0.6 0 1.2-0.6 1.2-1.2 0-0.7-0.6-1.2-1.2-1.2-0.7 0-1.2 0.5-1.2 1.2 0 0.6 0.5 1.2 1.2 1.2z"/>
				</g>
			</g>
			<g id="&lt;Group&gt;">
				<g id="&lt;Group&gt;">
					<path id="&lt;Compound Path&gt;" fill-rule="evenodd" class="s4" d="m361.1 168.8h12.7c2 0 3.7 1.6 3.7 3.7v4.5c0 2-1.7 3.7-3.7 3.7h-9.6l-3.3 3.2v-3.2c-1.9-0.1-3.5-1.8-3.5-3.7v-4.5c0-2.1 1.7-3.7 3.7-3.7zm10.8 7.2c0.6 0 1.1-0.5 1.1-1.2 0-0.6-0.5-1.1-1.1-1.1-0.7 0-1.2 0.5-1.2 1.1 0 0.7 0.5 1.2 1.2 1.2zm-4.4 0c0.6 0 1.1-0.5 1.1-1.2 0-0.6-0.5-1.1-1.1-1.1-0.7 0-1.2 0.5-1.2 1.1 0 0.7 0.5 1.2 1.2 1.2zm-4.5 0c0.7 0 1.2-0.5 1.2-1.2 0-0.6-0.5-1.1-1.2-1.1-0.6 0-1.1 0.5-1.1 1.1 0 0.7 0.5 1.2 1.1 1.2z"/>
				</g>
			</g>
			<g id="&lt;Group&gt;">
				<g id="&lt;Group&gt;">
					<path id="&lt;Path&gt;" class="s4" d="m374.2 320.5l-9 5.2v-10.4z"/>
				</g>
				<g id="&lt;Group&gt;">
					<g id="&lt;Group&gt;">
						<path id="&lt;Compound Path&gt;" fill-rule="evenodd" class="s4" d="m368.4 331.3c-5.7 0-10.4-4.7-10.4-10.4 0-5.7 4.7-10.4 10.4-10.4 5.8 0 10.4 4.7 10.4 10.4 0 5.7-4.6 10.4-10.4 10.4zm0-19.5c-5 0-9.1 4.1-9.1 9.1 0 5 4.1 9.1 9.1 9.1 5 0 9.1-4.1 9.1-9.1 0-5-4.1-9.1-9.1-9.1z"/>
					</g>
				</g>
			</g>
			<g id="&lt;Group&gt;">
				<g id="&lt;Group&gt;">
					<g id="&lt;Group&gt;">
						<path id="&lt;Path&gt;" class="s4" d="m254.4 140.6v10.5l-4.7-2.8v-5z"/>
					</g>
				</g>
				<g id="&lt;Group&gt;">
					<path id="&lt;Path&gt;" class="s4" d="m248.7 148.4h-5.9v-5.1h5.9z"/>
				</g>
				<g id="&lt;Group&gt;">
					<path id="&lt;Path&gt;" class="s4" d="m249.4 154.9h-3l-2-5.5h3z"/>
				</g>
			</g>
			<g id="&lt;Group&gt;">
				<g id="&lt;Group&gt;">
					<g id="&lt;Group&gt;">
						<path id="&lt;Path&gt;" class="s0" d="m335.9 160.3h-10.4v-2h10.4z"/>
					</g>
				</g>
				<g id="&lt;Group&gt;">
					<g id="&lt;Group&gt;">
						<path id="&lt;Path&gt;" class="s0" d="m331.7 164.5h-2v-10.4h2z"/>
					</g>
				</g>
			</g>
		</g>
		<g id="&lt;Group&gt;">
		</g>
	</g>
</svg>