<svg version="1.2" xmlns="http://www.w3.org/2000/svg" viewBox="0 0 300 300" width="300" height="300">
	<title>&lt;Group&gt;</title>
	<style>
		.s0 { fill: #f9efe4 } 
		.s1 { fill: #f96232 } 
		.s2 { fill: #242d3c } 
		.s3 { fill: #43d3e8 } 
	</style>
	<ellipse id="Shape 1" class="s0" cx="149.5" cy="159" rx="99.5" ry="102"/>
	<g id="&lt;Group&gt;">
		<path id="&lt;Path&gt;" class="s1" d="m122.9 177.6h42.1v11.6c0 1.9-0.8 3.8-2.2 5.3-1.5 1.4-3.4 2.2-5.3 2.2h-45.5l-10.6 10.6c-0.2 0.2-0.6 0.2-0.8 0.1-0.3-0.1-0.5-0.4-0.5-0.7v-10h-2c-1.9 0-3.8-0.8-5.2-2.2-1.5-1.5-2.2-3.4-2.2-5.3v-35.1c0-1.9 0.7-3.8 2.2-5.3 1.4-1.4 3.3-2.2 5.2-2.2h15.6v21.8c0 2.4 0.9 4.7 2.7 6.5 1.8 1.8 4.2 2.7 6.5 2.7z"/>
		<g id="&lt;Group&gt;">
			<path id="&lt;Compound Path&gt;" fill-rule="evenodd" class="s2" d="m193.1 193.3c-0.9 0-1.7-0.3-2.3-0.9l-12.5-12.5h-55.4c-3.1 0-5.9-1.2-8.1-3.4-2.2-2.1-3.4-5-3.4-8.1v-43.5c0-3.1 1.2-5.9 3.4-8.1 2.2-2.2 5-3.4 8.1-3.4h73.5c3.1 0 6 1.2 8.1 3.4 2.2 2.2 3.4 5 3.4 8.1v43.5c0 3.1-1.2 6-3.4 8.1-2.1 2.2-5 3.4-8.1 3.4h-0.1v10.2c0 1.3-0.8 2.5-2 3q-0.6 0.2-1.2 0.2zm-70.2-75.3c-1.8 0-3.6 0.7-4.9 2-1.3 1.3-2 3.1-2 4.9v43.5c0 1.9 0.7 3.6 2 4.9 1.3 1.3 3.1 2 4.9 2h57.3l11.5 11.5v-11.5h4.7c1.8 0 3.6-0.7 4.9-2 1.3-1.3 2-3 2-4.9v-43.5c0-1.8-0.7-3.6-2-4.9-1.3-1.3-3.1-2-4.9-2z"/>
			<path id="&lt;Path&gt;" class="s3" d="m124.7 166.6v-39.8h69.9v39.8z"/>
			<g id="&lt;Group&gt;">
				<path id="&lt;Path&gt;" class="s2" d="m153.5 149h-4.2v-4.6h4.2z"/>
				<path id="&lt;Path&gt;" class="s2" d="m161.7 149h-4.1v-4.6h4.1z"/>
				<path id="&lt;Path&gt;" class="s2" d="m170 149h-4.1v-4.6h4.1z"/>
			</g>
		</g>
	</g>
</svg>