<svg version="1.2" xmlns="http://www.w3.org/2000/svg" viewBox="0 0 500 500" width="500" height="500">
	<title>&lt;Group&gt;</title>
	<style>
		.s0 { fill: #43d3e8 } 
		.s1 { fill: #242d3c } 
	</style>
	<g id="&lt;Group&gt;">
		<path id="&lt;Path&gt;" class="s0" d="m269.7 219.3q2.9-0.9 6.1-0.9c11.5 0 20.8 9.3 20.8 20.8 0 8.7-5.2 16.1-12.7 19.2-0.5 0.2-0.9 0.7-0.9 1.3 0 0.6 0.4 1.1 0.9 1.3q0.2 0 0.4 0.1c15 3.8 26.2 17.4 26.2 33.7h-22.9v-2.4c0-19.9-11.3-37.7-28.5-46.4 6.7-6.3 10.7-15.2 10.7-24.8q0-1-0.1-1.9z"/>
		<path id="&lt;Compound Path&gt;" fill-rule="evenodd" class="s1" d="m282.4 294.7h-93.7v-2.3c0-21.1 14-39.5 34.3-45.1-10.1-4.8-16.5-14.9-16.5-26.1 0-16 13.1-29 29.1-29 16 0 29 13 29 29 0 11.2-6.4 21.3-16.4 26.1 20.2 5.6 34.2 24 34.2 45.1zm-89-4.6h84.3c-1-18.4-13.8-34.1-31.8-38.6-0.1-0.1-0.4-0.1-0.6-0.2-1.6-0.5-2.8-2.1-2.8-3.9 0-1.6 1-3.1 2.5-3.7 9.1-3.8 15-12.7 15-22.5 0-13.5-11-24.4-24.4-24.4-13.5 0-24.5 10.9-24.5 24.4 0 9.8 5.9 18.7 15 22.5 1.5 0.6 2.5 2.1 2.5 3.7 0 1.8-1.1 3.4-2.8 3.9q-0.2 0.1-0.5 0.1c-18.1 4.6-30.9 20.3-31.9 38.7z"/>
	</g>
</svg>