<svg version="1.2" xmlns="http://www.w3.org/2000/svg" viewBox="0 0 300 300" width="300" height="300"><style>.a{fill:#ea494b}.b{fill:#fff}</style><ellipse class="a" cx="150" cy="149.5" rx="83" ry="86.5"/><path class="b" d="m111.3 116.5c0 0-1-0.6-2.5-1.4-0.8-0.4-1.7-0.9-2.6-1.4-1-0.4-2-0.9-3.1-1.4-1-0.5-2.1-1-3.1-1.4-1-0.5-1.9-0.8-2.7-1.2-1.7-0.6-2.8-1-2.8-1 0 0 2.5-2.7 2.5-2.7 0 0 0.9 0.4 2.3 1 0.7 0.3 1.5 0.6 2.3 1 0.8 0.4 1.7 0.9 2.6 1.3 0.8 0.5 1.7 0.9 2.5 1.4 0.8 0.4 1.5 0.8 2.2 1.2 1.2 0.7 2 1.2 2 1.2 0 0-0.4-0.9-1-2.2-0.2-0.7-0.6-1.4-0.9-2.3-0.4-0.8-0.7-1.7-1.1-2.6-0.3-1-0.6-1.9-1-2.7-0.3-0.9-0.5-1.7-0.8-2.4-0.4-1.4-0.7-2.4-0.7-2.4 0 0 3.2-2.3 3.2-2.3 0 0 0.8 0.6 2 1.4 0.6 0.5 1.3 1 2 1.5 0.7 0.6 1.5 1.2 2.3 1.8 0.7 0.6 1.4 1.3 2.1 1.9 0.7 0.6 1.4 1.1 1.9 1.6 1.1 1 1.8 1.6 1.8 1.6 0 0-0.2-0.9-0.6-2.3-0.1-0.7-0.3-1.6-0.5-2.5-0.2-0.8-0.4-1.8-0.5-2.8-0.2-0.9-0.4-1.9-0.5-2.8-0.1-0.9-0.3-1.7-0.3-2.5-0.2-1.4-0.3-2.4-0.3-2.4 0 0 3.1-1.5 3.1-1.5 0 0 0.1 1.2 0.3 2.9 0 0.9 0.1 1.9 0.2 3 0.2 1 0.3 2.2 0.5 3.3 0.1 1.2 0.3 2.3 0.5 3.4 0.2 1 0.4 2 0.5 2.8 0.4 1.7 0.6 2.8 0.6 2.8 0 0-2.9 1.7-2.9 1.7 0 0-0.7-0.6-1.8-1.6-0.6-0.5-1.3-1.1-2-1.7-0.7-0.6-1.4-1.2-2.2-1.8-0.8-0.7-1.6-1.3-2.3-1.8-0.8-0.6-1.5-1.1-2.1-1.6-1.2-0.8-2-1.4-2-1.4 0 0 0.2 1 0.7 2.4 0.2 0.7 0.5 1.5 0.8 2.4 0.3 0.9 0.6 1.9 1 2.8 0.3 0.9 0.7 1.9 1 2.7 0.4 0.9 0.7 1.7 1 2.4 0.6 1.4 1 2.3 1 2.3 0 0-2.6 2.3-2.6 2.3zm30.6-23.4c0 0 0.1 0.5 0.2 1.2 0.1 0.8 0.2 1.8 0.4 2.7 0.1 1 0.3 2 0.4 2.7 0.1 0.8 0.2 1.2 0.2 1.2 0 0-2.4 0.5-2.4 0.5 0 0-0.1-0.5-0.2-1.3-0.2-0.7-0.3-1.6-0.5-2.6-0.2-1-0.4-1.9-0.5-2.7-0.2-0.7-0.3-1.2-0.3-1.2-0.2-1.2-0.7-2-1.4-2.5-0.8-0.5-1.8-0.6-3-0.3-1.5 0.4-2.6 1.1-3.3 2.1-0.6 0.9-0.7 2-0.3 3.2 0 0 0.2 0.5 0.4 1.2 0.2 0.6 0.5 1.5 0.8 2.4 0.3 0.9 0.6 1.7 0.8 2.4 0.2 0.7 0.3 1.1 0.3 1.1 0 0-2.2 0.8-2.2 0.8 0 0-0.4-1.1-1-2.7-0.3-0.8-0.7-1.7-1.1-2.7-0.3-1-0.7-2.1-1.1-3.1-0.4-1.1-0.8-2.2-1.2-3.2-0.4-1-0.7-1.9-1-2.7-0.6-1.6-1-2.7-1-2.7 0 0 3-1 3-1 0 0 0.5 1.7 1.1 3.4 0.5 1.7 1.1 3.4 1.1 3.4 0.4-1 1-1.8 1.8-2.4 0.8-0.7 1.8-1.2 3-1.5 1-0.2 1.9-0.3 2.8-0.2 0.8 0.1 1.5 0.3 2 0.7 0.6 0.4 1.1 0.9 1.5 1.5 0.3 0.7 0.6 1.4 0.7 2.3zm15.4 0.8c0 0-2.6-0.2-2.6-0.2-1.1 0-2 0-2.7 0.1-0.8 0.1-1.3 0.3-1.8 0.5-0.8 0.4-1.1 1.1-1.1 2.1 0 0.8 0.4 1.4 0.9 1.8 0.6 0.4 1.4 0.6 2.4 0.6 1.4 0 2.5-0.3 3.3-1.1 0.5-0.4 0.8-0.9 1.1-1.4 0.3-0.6 0.4-1.2 0.5-1.9 0 0 0-0.5 0-0.5zm2.8-0.6c0 0-0.1 0.5-0.2 1.2-0.1 0.7-0.2 1.6-0.3 2.5-0.1 0.9-0.2 1.9-0.3 2.6-0.1 0.7-0.2 1.1-0.2 1.1 0 0-2.3-0.2-2.3-0.2 0 0 0.1-2 0.1-2-0.6 0.8-1.3 1.3-2.1 1.6-0.9 0.4-1.9 0.5-3 0.5-1.5 0-2.7-0.3-3.6-1-1-0.7-1.5-1.6-1.6-2.9-0.1-0.7 0-1.4 0.3-2 0.2-0.6 0.6-1.1 1.2-1.5 0.6-0.4 1.4-0.7 2.3-0.9 0.9-0.2 2-0.3 3.2-0.3 0 0 3.9 0.2 3.9 0.2 0 0 0-0.2 0-0.2 0.1-1-0.3-1.8-1.1-2.4-0.8-0.6-2-0.9-3.6-0.9-1 0-2 0.1-2.9 0.3-0.9 0.2-1.8 0.5-2.6 0.9 0 0-0.2-2-0.2-2 1.1-0.3 2.1-0.6 3.1-0.8 1-0.2 2-0.3 2.9-0.2 1.3 0 2.4 0.2 3.4 0.5 0.9 0.3 1.7 0.7 2.2 1.2 0.6 0.6 1 1.3 1.2 2 0.2 0.8 0.3 1.7 0.2 2.7zm7.3-8.3c0 0 3 0.7 3 0.7 0 0-0.2 0.9-0.4 1.8-0.3 0.9-0.5 1.8-0.5 1.8 0 0 1.5 0.4 2.9 0.8 1.5 0.5 2.9 0.9 2.9 0.9 0 0-0.5 1.6-0.5 1.6 0 0-1.4-0.4-2.8-0.9-1.5-0.4-2.9-0.8-2.9-0.8 0 0-0.4 1.8-0.9 3.5-0.4 1.7-0.8 3.5-0.8 3.5-0.3 1-0.3 1.7 0 2.1 0.2 0.4 0.8 0.7 1.8 1 0 0 2.4 0.7 2.4 0.7 0 0-0.5 1.7-0.5 1.7 0 0-2.4-0.7-2.4-0.7-0.9-0.3-1.6-0.5-2.2-0.8-0.6-0.3-1-0.7-1.3-1.1-0.3-0.3-0.4-0.8-0.5-1.4-0.1-0.6 0-1.3 0.2-2.1 0 0 0.3-1.8 0.7-3.5 0.3-1.8 0.7-3.5 0.7-3.5 0 0-2.1-0.4-2.1-0.4 0 0 0.3-1.6 0.3-1.6 0 0 2.1 0.4 2.1 0.4 0 0 0.2-0.9 0.4-1.9 0.2-0.9 0.4-1.8 0.4-1.8zm14.4 23.3c0 0 0.4-0.7 1-1.7 0.3-0.6 0.7-1.2 1.1-1.8 0.4-0.7 0.8-1.4 1.2-2.1 0.4-0.7 0.8-1.4 1.2-2.1 0.4-0.7 0.8-1.3 1.1-1.8 0.6-1.1 1-1.8 1-1.8 0 0 2.6 1.6 2.6 1.6 0 0-0.5 0.7-1.1 1.7-0.4 0.5-0.8 1.1-1.2 1.8-0.4 0.6-0.8 1.3-1.3 2-0.4 0.7-0.9 1.4-1.3 2-0.4 0.7-0.8 1.3-1.1 1.8-0.7 1-1.1 1.7-1.1 1.7 0 0-2.1-1.3-2.1-1.3zm7.8-13.3c0 0 1.4-2.4 1.4-2.4 0 0 2.7 1.7 2.7 1.7 0 0-1.5 2.3-1.5 2.3 0 0-2.6-1.6-2.6-1.6zm15.1 15.7c0 0-1.5 1.4-1.5 1.4-0.3-0.9-0.8-1.7-1.3-2.5-0.6-0.7-1.2-1.5-1.9-2.2-1.2-1-2.1-1.6-2.9-1.8-0.8-0.2-1.4-0.1-1.8 0.4-0.3 0.4-0.4 0.9-0.1 1.4 0.2 0.6 0.8 1.4 1.7 2.7 0 0 0.7 0.7 0.7 0.7 1.2 1.7 1.9 3.1 2 4.1 0.2 1-0.2 1.9-1 2.6-0.9 0.8-2 1-3.3 0.6-0.7-0.1-1.4-0.4-2-0.9-0.7-0.4-1.4-0.9-2.2-1.6-0.6-0.5-1.2-1.1-1.8-1.8-0.6-0.7-1.2-1.4-1.8-2.2 0 0 1.3-1.8 1.3-1.8 0.6 0.9 1.1 1.7 1.7 2.5 0.6 0.7 1.2 1.4 1.9 2 0.9 0.8 1.7 1.4 2.4 1.6 0.7 0.2 1.3 0.1 1.8-0.3 0.4-0.4 0.5-0.9 0.4-1.5-0.1-0.6-0.7-1.6-1.8-3 0 0-0.6-0.7-0.6-0.7-1.1-1.4-1.8-2.5-2.1-3.4-0.2-1-0.1-1.8 0.5-2.6 0.8-1 1.8-1.4 3.2-1.2 0.7 0.1 1.4 0.4 2.2 0.8 0.8 0.5 1.6 1.1 2.5 1.9 0.9 0.8 1.6 1.6 2.2 2.4 0.7 0.8 1.2 1.6 1.6 2.4z"/><path class="b" d="m128.6 142.4h-2.9v13.7h2.9q3.6 0 5.3-1.7 1.7-1.6 1.7-5.2 0-3.5-1.7-5.1-1.7-1.7-5.3-1.7zm-5.2 15.6v-17.5h4.8q5.1 0 7.5 2.1 2.4 2.1 2.4 6.6 0 4.6-2.4 6.7-2.4 2.1-7.5 2.1zm26.5-6.6h-2.1q-2.6 0-3.7 0.6-1 0.6-1 2 0 1.2 0.8 1.9 0.8 0.6 2.1 0.6 1.7 0 2.8-1.2 1.1-1.3 1.1-3.4zm2.2-0.9v7.5h-2.2v-2q-0.7 1.2-1.8 1.8-1.1 0.5-2.7 0.5-2 0-3.2-1.1-1.2-1.1-1.2-3 0-2.3 1.5-3.4 1.5-1.1 4.4-1.1h3v-0.2q0-1.5-1-2.3-0.9-0.8-2.7-0.8-1.1 0-2.2 0.2-1.1 0.3-2.1 0.8v-1.9q1.2-0.5 2.3-0.7 1.2-0.3 2.2-0.3 2.9 0 4.3 1.5 1.4 1.5 1.4 4.5zm4.4-9.4h2.1v3.8h4.5v1.6h-4.5v7.2q0 1.6 0.5 2 0.4 0.5 1.8 0.5h2.2v1.8h-2.2q-2.5 0-3.5-0.9-0.9-1-0.9-3.4v-7.2h-1.6v-1.6h1.6zm17.5 10.2h-2.1q-2.6 0-3.6 0.6-1 0.6-1 2 0 1.2 0.7 1.9 0.8 0.6 2.1 0.6 1.8 0 2.8-1.2 1.1-1.3 1.1-3.4zm2.2-0.9v7.5h-2.2v-2q-0.7 1.2-1.8 1.8-1.1 0.5-2.7 0.5-2 0-3.2-1.1-1.2-1.1-1.2-3 0-2.2 1.5-3.4 1.5-1.1 4.4-1.1h3v-0.2q0-1.5-1-2.3-0.9-0.8-2.7-0.8-1.1 0-2.2 0.2-1.1 0.3-2 0.9v-2q1.1-0.5 2.3-0.7 1.1-0.3 2.1-0.3 2.9 0 4.3 1.5 1.4 1.5 1.4 4.5z"/><path class="b" d="m111.1 186.1c0 0-1.1 1.8-1.1 1.8-0.6-1-1.2-1.9-1.8-2.7-0.6-0.7-1.2-1.4-1.9-2-1.1-1-2-1.7-2.9-1.9-0.8-0.3-1.5-0.1-2 0.6-0.4 0.5-0.6 1.1-0.4 1.8 0.2 0.7 0.8 1.7 1.9 3 0 0 1.1 1.5 1.1 1.5 0.8 0.8 1.4 1.6 1.9 2.4 0.4 0.7 0.8 1.4 1 2.1 0.2 0.6 0.3 1.3 0.3 1.9-0.1 0.6-0.3 1.2-0.6 1.7-0.4 0.7-0.8 1.2-1.4 1.5-0.6 0.2-1.3 0.3-2.1 0.2-0.8-0.2-1.7-0.6-2.6-1.1-1-0.6-2.1-1.4-3.2-2.5-0.8-0.8-1.6-1.7-2.5-2.8-0.8-1.1-1.5-2.3-2.3-3.6 0 0 1.4-1.7 1.4-1.7 0.6 1.4 1.2 2.6 2 3.8 0.7 1.1 1.5 2.1 2.4 2.9 1.4 1.3 2.5 2 3.5 2.3 1 0.2 1.8-0.1 2.2-0.8 0.4-0.7 0.5-1.4 0.2-2.2-0.3-0.8-0.9-1.8-1.9-3.1 0 0-1.2-1.4-1.2-1.4-0.7-1-1.3-1.8-1.7-2.6-0.5-0.8-0.7-1.5-0.9-2.2-0.2-1.2 0-2.3 0.8-3.2 0.4-0.5 0.9-0.9 1.5-1 0.6-0.2 1.2-0.2 1.9 0 0.7 0.1 1.4 0.5 2.1 0.9 0.7 0.5 1.5 1.1 2.3 1.9 0.7 0.6 1.3 1.3 2 2.1 0.7 0.7 1.3 1.5 2 2.4zm7 10.5c-1.1-0.7-2.2-0.8-3.2-0.5-0.5 0.2-1 0.4-1.4 0.8-0.4 0.4-0.8 1-1.1 1.6-0.3 0.7-0.5 1.3-0.5 1.9-0.1 0.7 0 1.3 0.1 1.9 0.4 1.2 1.3 2.2 2.6 2.9 1.3 0.7 2.4 0.8 3.5 0.4 0.5-0.2 1-0.5 1.3-0.9 0.4-0.5 0.7-1 1-1.7 0.2-0.7 0.3-1.4 0.4-2 0-0.6-0.1-1.2-0.3-1.8-0.4-1.1-1.2-2-2.4-2.6zm0.7-1.6c0.9 0.5 1.7 1.1 2.3 1.8 0.7 0.6 1.2 1.3 1.5 2.1 0.4 0.8 0.6 1.6 0.7 2.5 0 0.8-0.1 1.8-0.4 2.7-0.3 1-0.8 1.7-1.3 2.4-0.5 0.6-1.2 1-2 1.3-0.8 0.2-1.7 0.2-2.6 0.1-1-0.2-2-0.6-3.1-1.2-1-0.6-1.9-1.2-2.6-2-0.7-0.8-1.3-1.6-1.6-2.5-0.3-0.9-0.5-1.8-0.4-2.6 0.1-0.9 0.3-1.8 0.8-2.7 0.4-0.8 1-1.5 1.6-2 0.6-0.5 1.3-0.8 2-1 0.8-0.2 1.6-0.1 2.4 0.1 0.9 0.1 1.8 0.5 2.7 1zm7.4 11.8c0 0 0.2-0.4 0.3-1.1 0.2-0.7 0.5-1.6 0.7-2.5 0.3-0.8 0.5-1.7 0.7-2.4 0.2-0.7 0.3-1.1 0.3-1.1 0 0 2.2 0.7 2.2 0.7 0 0-0.1 0.5-0.2 1.2-0.2 0.6-0.4 1.5-0.6 2.4-0.3 0.9-0.5 1.8-0.6 2.5-0.2 0.6-0.3 1.1-0.3 1.1-0.3 1.1-0.2 2.1 0.2 2.8 0.5 0.7 1.3 1.3 2.4 1.6 1.4 0.4 2.6 0.3 3.5-0.2 0.9-0.5 1.4-1.4 1.6-2.6 0 0 0.1-0.4 0.2-1.1 0.1-0.6 0.2-1.5 0.3-2.3 0.2-0.9 0.3-1.8 0.4-2.4 0.1-0.7 0.2-1.1 0.2-1.1 0 0 2.3 0.4 2.3 0.4 0 0-0.1 0.8-0.3 1.9 0 0.6-0.1 1.3-0.2 2-0.1 0.7-0.2 1.5-0.3 2.2-0.1 0.8-0.2 1.6-0.3 2.3-0.1 0.7-0.1 1.4-0.2 2-0.1 1.1-0.2 1.9-0.2 1.9 0 0-2.7-0.5-2.7-0.5 0 0 0.3-1.9 0.3-1.9-0.7 0.6-1.6 1-2.5 1.2-0.9 0.1-1.9 0.1-3-0.2-0.9-0.3-1.7-0.6-2.3-1.1-0.6-0.4-1.1-0.9-1.5-1.5-0.3-0.6-0.5-1.2-0.6-1.9-0.1-0.7 0-1.5 0.2-2.3zm7.7-5.6zm18.8 2.1c0 0 0.1 2.1 0.1 2.1-0.3-0.1-0.6-0.2-0.9-0.3-0.3 0-0.7-0.1-1.1 0-1.3 0-2.3 0.3-3.1 1.1-0.3 0.3-0.6 0.8-0.8 1.3-0.2 0.5-0.3 1.1-0.4 1.8 0 0 0 1.7-0.1 3.3-0.1 1.6-0.1 3.2-0.1 3.2 0 0-2.7-0.1-2.7-0.1 0 0 0.1-0.8 0.1-2 0.1-0.6 0.1-1.2 0.2-2 0-0.7 0.1-1.4 0.1-2.2 0.1-0.8 0.1-1.6 0.2-2.3 0-0.7 0.1-1.4 0.1-2 0.1-1.1 0.1-1.9 0.1-1.9 0 0 2.4 0.2 2.4 0.2 0 0-0.1 1.9-0.1 1.9 0.5-0.7 1.2-1.3 1.9-1.6 0.8-0.4 1.8-0.6 2.9-0.6 0.2 0 0.3 0 0.5 0 0.2 0.1 0.4 0.1 0.7 0.1zm12-1.1c0 0 0.3 1.9 0.3 1.9-0.7-0.1-1.4-0.2-2.1-0.2-0.6-0.1-1.3 0-2 0.1-0.8 0.1-1.4 0.3-2 0.6-0.6 0.3-1 0.7-1.4 1.2-0.4 0.4-0.7 1-0.9 1.6-0.2 0.6-0.2 1.3-0.2 2 0.1 0.8 0.3 1.4 0.5 2 0.3 0.6 0.7 1 1.2 1.4 0.5 0.3 1.1 0.6 1.7 0.7 0.7 0.1 1.5 0.1 2.3 0 0.8-0.2 1.5-0.4 2.2-0.7 0.7-0.3 1.4-0.7 2.1-1.2 0 0 0.3 1.8 0.3 1.8-0.7 0.5-1.4 0.8-2.2 1.1-0.7 0.3-1.5 0.6-2.4 0.7-1.3 0.2-2.4 0.2-3.4 0.1-0.9-0.2-1.8-0.6-2.6-1.1-0.7-0.5-1.3-1.2-1.6-1.9-0.4-0.8-0.6-1.7-0.7-2.7 0-1 0.1-1.9 0.4-2.7 0.3-0.8 0.7-1.5 1.3-2.2 0.6-0.6 1.3-1.1 2.2-1.5 0.8-0.4 1.8-0.7 2.9-0.9 0.7-0.1 1.4-0.2 2.1-0.2 0.7 0 1.3 0 2 0.1zm6.6 10.5c0 0-0.1-0.8-0.4-1.9-0.1-0.6-0.3-1.2-0.4-1.9-0.2-0.7-0.4-1.5-0.5-2.2-0.2-0.8-0.4-1.5-0.6-2.2-0.1-0.7-0.3-1.4-0.4-1.9-0.3-1.2-0.4-1.9-0.4-1.9 0 0 2.2-0.8 2.2-0.8 0 0 0.2 0.8 0.5 1.9 0.2 0.6 0.3 1.2 0.5 1.9 0.2 0.7 0.4 1.4 0.6 2.2 0.2 0.7 0.4 1.5 0.5 2.1 0.2 0.7 0.4 1.4 0.5 1.9 0.3 1.2 0.5 1.9 0.5 1.9 0 0-2.6 0.9-2.6 0.9zm-3.2-14.2c0 0-0.6-2.5-0.6-2.5 0 0 2.1-0.7 2.1-0.7 0 0 0.7 2.5 0.7 2.5 0 0-2.2 0.7-2.2 0.7zm20.3-2.2c0 0 0.2 0.4 0.5 1 0.3 0.6 0.7 1.5 1.1 2.3 0.4 0.8 0.8 1.6 1.1 2.2 0.3 0.6 0.5 1 0.5 1 0 0-2.3 1.6-2.3 1.6 0 0-0.2-0.5-0.5-1.1-0.3-0.6-0.7-1.4-1.1-2.2-0.3-0.8-0.7-1.6-1-2.2-0.3-0.7-0.5-1.1-0.5-1.1-0.5-1-1.1-1.6-1.8-1.8-0.7-0.2-1.5-0.1-2.5 0.5-1.2 0.6-2 1.4-2.4 2.4-0.5 1-0.5 2.1-0.1 3.2 0 0 0.1 0.4 0.3 1 0.2 0.6 0.5 1.4 0.8 2.2 0.3 0.8 0.6 1.6 0.8 2.3 0.2 0.6 0.4 1 0.4 1 0 0-2.6 1.1-2.6 1.1 0 0-0.2-0.7-0.5-1.8-0.2-0.5-0.4-1.2-0.6-1.8-0.3-0.7-0.5-1.4-0.7-2.2-0.3-0.7-0.5-1.4-0.7-2.1-0.2-0.7-0.5-1.3-0.6-1.8-0.4-1.1-0.6-1.9-0.6-1.9 0 0 2.2-1 2.2-1 0 0 0.6 1.8 0.6 1.8 0.3-0.9 0.7-1.8 1.3-2.5 0.6-0.7 1.3-1.3 2.2-1.8 0.7-0.4 1.4-0.7 2.1-0.8 0.6-0.2 1.2-0.2 1.8-0.1 0.5 0.2 1.1 0.5 1.5 0.9 0.5 0.4 0.9 1 1.3 1.7zm13.1-9.7c-0.5-0.5-0.9-1-1.4-1.2-0.4-0.3-0.9-0.4-1.5-0.5-1 0-2 0.5-3 1.5-1.1 0.9-1.7 2-1.9 3.1-0.1 0.6-0.1 1.2 0.1 1.8 0.1 0.6 0.3 1.2 0.7 1.8 0.4 0.6 0.8 1.1 1.2 1.4 0.5 0.3 0.9 0.5 1.5 0.6 1 0.1 2.2-0.4 3.3-1.5 1.2-1.1 1.8-2.3 2-3.5 0.1-0.6 0-1.2-0.1-1.8-0.2-0.6-0.5-1.1-0.9-1.7zm-1.7-6.5c0 0 0.4 0.5 1 1.3 0.3 0.3 0.7 0.8 1.1 1.2 0.3 0.5 0.7 1 1.1 1.4 0.4 0.5 0.9 1 1.2 1.5 0.4 0.4 0.8 0.9 1.1 1.2 0.6 0.8 1 1.3 1 1.3 0.6 0.7 1 1.5 1.3 2.3 0.2 0.9 0.2 1.8 0 2.7-0.2 0.9-0.6 1.8-1.3 2.8-0.6 1-1.5 2-2.6 3-0.8 0.8-1.6 1.4-2.4 2-0.7 0.5-1.5 1-2.3 1.4 0 0-1-1.7-1-1.7 0.8-0.3 1.6-0.6 2.4-1.1 0.7-0.4 1.4-0.9 2.1-1.6 1.5-1.3 2.4-2.7 2.7-3.9 0.3-1.3 0-2.4-0.8-3.5 0 0-0.5-0.7-0.5-0.7-0.1 1-0.3 2-0.8 2.9-0.5 1-1.2 1.9-2.2 2.8-0.8 0.8-1.6 1.3-2.5 1.7-0.8 0.3-1.6 0.4-2.4 0.4-0.8-0.1-1.5-0.3-2.1-0.8-0.6-0.4-1.2-1-1.6-1.8-0.5-0.8-0.7-1.7-0.9-2.5-0.1-0.8-0.1-1.6 0.1-2.5 0.2-0.8 0.5-1.6 0.9-2.4 0.5-0.7 1.1-1.4 1.8-2 0.8-0.8 1.7-1.4 2.5-1.7 0.8-0.3 1.6-0.4 2.4-0.3 0 0-1.1-1.4-1.1-1.4 0 0 1.8-2 1.8-2z"/></svg>