<svg xmlns="http://www.w3.org/2000/svg" width="40" height="40" viewBox="0 0 40 40">
    <defs>
        <linearGradient id="a" x1="0%" y1="0%" y2="100%">
            <stop offset="0%" stop-color="#25B9EC"/>
            <stop offset="100%" stop-color="#2072B8"/>
        </linearGradient>
    </defs>
    <path fill="url(#a)" fill-rule="nonzero" d="M22.248 9.76v3.137c0 .407.213.77.569.974.35.2.79.198 1.137-.002a1.25 1.25 0 0 1 .62-.164c.683 0 1.239.549 1.239 1.224 0 .674-.556 1.223-1.239 1.223-.218 0-.432-.057-.62-.164-.349-.2-.785-.202-1.137-.001a1.11 1.11 0 0 0-.57.973v5.393h-3.466c-.08-.061-.08-.078-.065-.107.19-.361.29-.77.29-1.18 0-1.416-1.166-2.568-2.6-2.568-.87 0-1.638.426-2.11 1.076a1.115 1.115 0 0 0-.34-1.297 1.498 1.498 0 0 1-.44-.571 1.492 1.492 0 0 1-.025-1.161 1.54 1.54 0 0 1 1.43-.967c.61 0 1.162.357 1.407.908.1.226.143.463.127.707-.026.4.15.761.482.992.327.226.744.267 1.11.108l4.148-1.8-2.622-5.9c.028-.1.044-.1.075-.101.4.045.807-.016 1.18-.178a2.267 2.267 0 0 0 1.182-2.997 2.316 2.316 0 0 0-3.964-.43c-.099.025-.113.015-.126-.014L16.643 4 4 9.486 9.551 21.98 13.7 20.18c.163-.07.299-.18.409-.308a2.528 2.528 0 0 0-.01 2.376c-.02.098-.034.106-.066.106h-4.53v13.644h12.69L36 36V9.76H22.248zm-8.976 9.458l-3.174 1.377L5.4 10.026l10.696-4.64.85 1.91c.165.373.508.62.917.665.414.046.8-.127 1.04-.453a1.24 1.24 0 0 1 .999-.5c.491 0 .937.287 1.134.732a1.22 1.22 0 0 1-.636 1.613c-.2.086-.418.12-.634.095a1.126 1.126 0 0 0-1.042.45 1.1 1.1 0 0 0-.125 1.118l2.193 4.937-3.207 1.387c-.064-.033-.071-.048-.07-.08a2.55 2.55 0 0 0-.214-1.196 2.603 2.603 0 0 0-2.38-1.537 2.6 2.6 0 0 0-1.044.218 2.564 2.564 0 0 0-1.377 1.418 2.522 2.522 0 0 0 .041 1.965c.167.375.425.71.747.967.024.02.03.035.027.065-.005.032-.015.045-.044.058zm10.04-2.258c0-.031.008-.047.036-.062.028-.016.046-.017.073 0 .35.2.748.305 1.154.305 1.269 0 2.302-1.02 2.302-2.274s-1.033-2.274-2.302-2.274c-.405 0-.804.105-1.154.306-.027.015-.045.015-.072 0-.028-.016-.037-.032-.037-.064v-2.086h11.625v11.543h-3.678a.062.062 0 0 1-.054-.032c-.017-.028-.017-.043-.004-.07.022-.044.05-.089.082-.137.291-.422.445-.915.445-1.426 0-1.397-1.15-2.533-2.563-2.533-1.413 0-2.563 1.136-2.563 2.533a2.5 2.5 0 0 0 .445 1.426c.032.047.06.091.082.136.013.028.013.044-.004.07a.062.062 0 0 1-.053.033h-3.76V16.96zm-12.746 6.445h3.467c.4 0 .763-.202.972-.54.207-.339.222-.75.037-1.101a1.481 1.481 0 0 1-.17-.697c0-.837.688-1.518 1.535-1.518s1.535.68 1.535 1.518c0 .246-.057.48-.17.697-.185.351-.17.762.038 1.101.208.338.57.54.97.54h3.41v4.291a.074.074 0 0 1-.072.073h-.042a.93.93 0 0 1-.553-.169 2.576 2.576 0 0 0-1.443-.44c-1.414 0-2.563 1.137-2.563 2.533 0 1.397 1.15 2.533 2.563 2.533.517 0 1.016-.152 1.443-.44a.934.934 0 0 1 .553-.168h.042c.04 0 .073.034.073.072v3.257H10.566V23.405zm12.689 11.544V31.69c0-.619-.51-1.123-1.137-1.123-.466 0-.844.115-1.194.352-.249.168-.54.256-.844.256-.827 0-1.5-.665-1.5-1.482s.673-1.481 1.5-1.481c.303 0 .595.089.844.256.35.237.728.352 1.152.352.669 0 1.179-.504 1.179-1.124v-4.29h3.808c.401 0 .753-.194.966-.53a1.09 1.09 0 0 0 .053-1.09 2.122 2.122 0 0 0-.157-.263 1.464 1.464 0 0 1-.26-.834c0-.818.673-1.482 1.5-1.482s1.5.664 1.5 1.482c0 .299-.09.587-.26.834-.062.09-.113.176-.156.262-.178.356-.16.753.052 1.09.213.337.565.531.966.531h3.67V34.95H23.255z"/>
</svg>
