<svg xmlns="http://www.w3.org/2000/svg" width="40" height="40" viewBox="0 0 40 40">
    <defs>
        <linearGradient id="a" x1="0%" y1="0%" y2="100%">
            <stop offset="0%" stop-color="#25B9EC"/>
            <stop offset="100%" stop-color="#2072B8"/>
        </linearGradient>
    </defs>
    <path fill="url(#a)" fill-rule="nonzero" d="M7 15.63a5.925 5.925 0 0 1-3.042-.839c-1.23.504-2.024 1.712-1.954 3.028l.263 5.114c.002.038.032.067.085.067h9.296c.048 0 .08-.03.084-.055l.264-5.128c.07-1.32-.73-2.539-1.95-3.028A5.925 5.925 0 0 1 7 15.63zm3.063-1.893c1.799.537 3.032 2.243 2.931 4.133l-.263 5.127c-.055.571-.509 1.003-1.083 1.003H2.352a1.073 1.073 0 0 1-1.084-1.02l-.262-5.11c-.1-1.883 1.125-3.573 2.928-4.132l.163-.05.14.095A4.917 4.917 0 0 0 7 14.63c.995 0 1.96-.3 2.762-.847l.14-.094.16.048zM7 12.111c1.715 0 3.102-1.37 3.102-3.055C10.102 7.37 8.715 6 7 6 5.285 6 3.898 7.37 3.898 9.056c0 1.685 1.387 3.055 3.102 3.055zm0 1c-2.265 0-4.102-1.815-4.102-4.055C2.898 6.815 4.735 5 7 5c2.265 0 4.102 1.815 4.102 4.056 0 2.24-1.837 4.055-4.102 4.055zm29.063.626c1.799.537 3.032 2.243 2.931 4.133l-.263 5.127c-.055.571-.509 1.003-1.083 1.003h-9.296a1.073 1.073 0 0 1-1.084-1.02l-.262-5.11c-.1-1.883 1.125-3.573 2.928-4.132l.163-.05.14.095A4.917 4.917 0 0 0 33 14.63c.995 0 1.96-.3 2.762-.847l.14-.094.16.048zM33 15.63a5.925 5.925 0 0 1-3.042-.839c-1.23.504-2.024 1.712-1.954 3.028l.263 5.114c.002.038.032.067.085.067h9.296c.048 0 .08-.03.084-.055l.264-5.128c.07-1.32-.73-2.539-1.95-3.028a5.925 5.925 0 0 1-3.046.84zm0-2.519c-2.265 0-4.102-1.815-4.102-4.055C28.898 6.815 30.735 5 33 5c2.265 0 4.102 1.815 4.102 4.056 0 2.24-1.837 4.055-4.102 4.055zm0-1c1.715 0 3.102-1.37 3.102-3.055C36.102 7.37 34.715 6 33 6c-1.715 0-3.102 1.37-3.102 3.056 0 1.685 1.387 3.055 3.102 3.055zm-9.937 11.626c1.799.537 3.032 2.243 2.931 4.133l-.263 5.127c-.055.571-.509 1.003-1.083 1.003h-9.296a1.073 1.073 0 0 1-1.084-1.02l-.262-5.11c-.1-1.883 1.125-3.573 2.928-4.132l.163-.05.14.095A4.917 4.917 0 0 0 20 24.63c.995 0 1.96-.3 2.762-.847l.14-.094.16.048zM20 25.63a5.925 5.925 0 0 1-3.042-.839c-1.23.504-2.024 1.712-1.954 3.028l.263 5.114c.002.038.032.067.085.067h9.296c.048 0 .08-.03.084-.055l.264-5.128c.07-1.32-.73-2.539-1.95-3.028a5.925 5.925 0 0 1-3.046.84zm0-2.519c-2.265 0-4.102-1.815-4.102-4.055C15.898 16.815 17.735 15 20 15c2.265 0 4.102 1.815 4.102 4.056 0 2.24-1.837 4.055-4.102 4.055zm0-1c1.715 0 3.102-1.37 3.102-3.055C23.102 17.37 21.715 16 20 16c-1.715 0-3.102 1.37-3.102 3.056 0 1.685 1.387 3.055 3.102 3.055z"/>
</svg>
