<svg xmlns="http://www.w3.org/2000/svg" width="40" height="40" viewBox="0 0 40 40">
    <defs>
        <linearGradient id="a" x1="0%" y1="0%" y2="100%">
            <stop offset="0%" stop-color="#25B9EC"/>
            <stop offset="100%" stop-color="#2072B8"/>
        </linearGradient>
    </defs>
    <path fill="url(#a)" fill-rule="nonzero" d="M9 36V9a1 1 0 0 0-1-1H5a1 1 0 0 0-1 1v27h5zM5 7h3a2 2 0 0 1 2 2v28H3V9a2 2 0 0 1 2-2zm9 9h3a2 2 0 0 1 2 2v19h-7V18a2 2 0 0 1 2-2zm4 20V18a1 1 0 0 0-1-1h-3a1 1 0 0 0-1 1v18h5zm5-25h3a2 2 0 0 1 2 2v24h-7V13a2 2 0 0 1 2-2zm4 25V13a1 1 0 0 0-1-1h-3a1 1 0 0 0-1 1v23h5zm5-23h3a2 2 0 0 1 2 2v22h-7V15a2 2 0 0 1 2-2zm4 23V15a1 1 0 0 0-1-1h-3a1 1 0 0 0-1 1v21h5z"/>
</svg>
