<svg xmlns="http://www.w3.org/2000/svg" width="40" height="40" viewBox="0 0 40 40">
    <defs>
        <linearGradient id="a" x1="0%" y1="0%" y2="100%">
            <stop offset="0%" stop-color="#25B9EC"/>
            <stop offset="100%" stop-color="#2072B8"/>
        </linearGradient>
    </defs>
    <path fill="url(#a)" fill-rule="nonzero" d="M10.498 20.09l6.026 1.495a3.487 3.487 0 0 1 .887-1.94l-5.199-9.23a3 3 0 1 1 2.275-3.19L28.73 9.952a2.5 2.5 0 1 1 3.13 3.397l.35 9.16a2.5 2.5 0 1 1-.996.118l-.35-9.13a2.495 2.495 0 0 1-1.798-.911l-7.216 6.444a3.5 3.5 0 1 1-5.295 3.595l-6.291-1.561a2.51 2.51 0 0 1-1.066 1.132l2.83 8.342a3 3 0 1 1-.948.32l-2.839-8.368a2.5 2.5 0 1 1 2.257-2.398zm18.093-8.42a2.502 2.502 0 0 1-.09-.744l-14.09-2.697a3.005 3.005 0 0 1-1.276 1.787L18.195 19a3.509 3.509 0 0 1 2.635-.402l7.76-6.93zM11.5 9.5a2 2 0 1 0 0-4 2 2 0 0 0 0 4zm8.5 15a2.5 2.5 0 1 0 0-5 2.5 2.5 0 0 0 0 5zm12 2a1.5 1.5 0 1 0 0-3 1.5 1.5 0 0 0 0 3zm-19.5 9a2 2 0 1 0 0-4 2 2 0 0 0 0 4zm18.5-23a1.5 1.5 0 1 0 0-3 1.5 1.5 0 0 0 0 3zm-23 9a1.5 1.5 0 1 0 0-3 1.5 1.5 0 0 0 0 3z"/>
</svg>
