<svg xmlns="http://www.w3.org/2000/svg" width="40" height="40" viewBox="0 0 40 40">
    <defs>
        <linearGradient id="a" x1="0%" y1="0%" y2="100%">
            <stop offset="0%" stop-color="#25B9EC"/>
            <stop offset="100%" stop-color="#2072B8"/>
        </linearGradient>
    </defs>
    <path fill="url(#a)" fill-rule="nonzero" d="M3.477 21.448l-.186-.283.196-.278C8.115 14.308 13.64 11.028 20.03 11.1c6.383.07 11.932 3.345 16.622 9.781l.212.291-.208.293c-4.459 6.283-10.007 9.555-16.614 9.778-6.63.224-12.165-3.06-16.565-9.794zm16.531 8.794c6.177-.208 11.375-3.217 15.622-9.063-4.467-6.003-9.662-9.015-15.61-9.08-5.947-.066-11.11 2.947-15.518 9.086 4.186 6.264 9.341 9.266 15.506 9.057zM20 27.5a6.5 6.5 0 1 1 0-13 6.5 6.5 0 0 1 0 13zm0-1a5.5 5.5 0 1 0 0-11 5.5 5.5 0 0 0 0 11zm0-3.5a2 2 0 1 1 0-4 2 2 0 0 1 0 4z"/>
</svg>
