<svg version="1.2" xmlns="http://www.w3.org/2000/svg" viewBox="0 0 300 300" width="300" height="300"><style>.a{fill:#6b7299}.b{fill:#fff}</style><ellipse class="a" cx="150" cy="149.5" rx="83" ry="86.5"/><path class="b" d="m111.3 116.5c0 0-1-0.6-2.5-1.4-0.8-0.4-1.7-0.9-2.6-1.4-1-0.4-2-0.9-3.1-1.4-1-0.5-2.1-1-3.1-1.4-1-0.5-1.9-0.8-2.7-1.2-1.7-0.6-2.8-1-2.8-1 0 0 2.5-2.7 2.5-2.7 0 0 0.9 0.4 2.3 1 0.7 0.3 1.5 0.6 2.3 1 0.8 0.4 1.7 0.9 2.6 1.3 0.8 0.5 1.7 0.9 2.5 1.4 0.8 0.4 1.5 0.8 2.2 1.2 1.2 0.7 2 1.2 2 1.2 0 0-0.4-0.9-1-2.2-0.2-0.7-0.6-1.4-0.9-2.3-0.4-0.8-0.7-1.7-1.1-2.6-0.3-1-0.6-1.9-1-2.7-0.3-0.9-0.5-1.7-0.8-2.4-0.4-1.4-0.7-2.4-0.7-2.4 0 0 3.2-2.3 3.2-2.3 0 0 0.8 0.6 2 1.4 0.6 0.5 1.3 1 2 1.5 0.7 0.6 1.5 1.2 2.3 1.8 0.7 0.6 1.4 1.3 2.1 1.9 0.7 0.6 1.4 1.1 1.9 1.6 1.1 1 1.8 1.6 1.8 1.6 0 0-0.2-0.9-0.6-2.3-0.1-0.7-0.3-1.6-0.5-2.5-0.2-0.8-0.4-1.8-0.5-2.8-0.2-0.9-0.4-1.9-0.5-2.8-0.1-0.9-0.3-1.7-0.3-2.5-0.2-1.4-0.3-2.4-0.3-2.4 0 0 3.1-1.5 3.1-1.5 0 0 0.1 1.2 0.3 2.9 0 0.9 0.1 1.9 0.2 3 0.2 1 0.3 2.2 0.5 3.3 0.1 1.2 0.3 2.3 0.5 3.4 0.2 1 0.4 2 0.5 2.8 0.4 1.7 0.6 2.8 0.6 2.8 0 0-2.9 1.7-2.9 1.7 0 0-0.7-0.6-1.8-1.6-0.6-0.5-1.3-1.1-2-1.7-0.7-0.6-1.4-1.2-2.2-1.8-0.8-0.7-1.6-1.3-2.3-1.8-0.8-0.6-1.5-1.1-2.1-1.6-1.2-0.8-2-1.4-2-1.4 0 0 0.2 1 0.7 2.4 0.2 0.7 0.5 1.5 0.8 2.4 0.3 0.9 0.6 1.9 1 2.8 0.3 0.9 0.7 1.9 1 2.7 0.4 0.9 0.7 1.7 1 2.4 0.6 1.4 1 2.3 1 2.3 0 0-2.6 2.3-2.6 2.3zm30.6-23.4c0 0 0.1 0.5 0.2 1.2 0.1 0.8 0.2 1.8 0.4 2.7 0.1 1 0.3 2 0.4 2.7 0.1 0.8 0.2 1.2 0.2 1.2 0 0-2.4 0.5-2.4 0.5 0 0-0.1-0.5-0.2-1.3-0.2-0.7-0.3-1.6-0.5-2.6-0.2-1-0.4-1.9-0.5-2.7-0.2-0.7-0.3-1.2-0.3-1.2-0.2-1.2-0.7-2-1.4-2.5-0.8-0.5-1.8-0.6-3-0.3-1.5 0.4-2.6 1.1-3.3 2.1-0.6 0.9-0.7 2-0.3 3.2 0 0 0.2 0.5 0.4 1.2 0.2 0.6 0.5 1.5 0.8 2.4 0.3 0.9 0.6 1.7 0.8 2.4 0.2 0.7 0.3 1.1 0.3 1.1 0 0-2.2 0.8-2.2 0.8 0 0-0.4-1.1-1-2.7-0.3-0.8-0.7-1.7-1.1-2.7-0.3-1-0.7-2.1-1.1-3.1-0.4-1.1-0.8-2.2-1.2-3.2-0.4-1-0.7-1.9-1-2.7-0.6-1.6-1-2.7-1-2.7 0 0 3-1 3-1 0 0 0.5 1.7 1.1 3.4 0.5 1.7 1.1 3.4 1.1 3.4 0.4-1 1-1.8 1.8-2.4 0.8-0.7 1.8-1.2 3-1.5 1-0.2 1.9-0.3 2.8-0.2 0.8 0.1 1.5 0.3 2 0.7 0.6 0.4 1.1 0.9 1.5 1.5 0.3 0.7 0.6 1.4 0.7 2.3zm15.4 0.8c0 0-2.6-0.2-2.6-0.2-1.1 0-2 0-2.7 0.1-0.8 0.1-1.3 0.3-1.8 0.5-0.8 0.4-1.1 1.1-1.1 2.1 0 0.8 0.4 1.4 0.9 1.8 0.6 0.4 1.4 0.6 2.4 0.6 1.4 0 2.5-0.3 3.3-1.1 0.5-0.4 0.8-0.9 1.1-1.4 0.3-0.6 0.4-1.2 0.5-1.9 0 0 0-0.5 0-0.5zm2.8-0.6c0 0-0.1 0.5-0.2 1.2-0.1 0.7-0.2 1.6-0.3 2.5-0.1 0.9-0.2 1.9-0.3 2.6-0.1 0.7-0.2 1.1-0.2 1.1 0 0-2.3-0.2-2.3-0.2 0 0 0.1-2 0.1-2-0.6 0.8-1.3 1.3-2.1 1.6-0.9 0.4-1.9 0.5-3 0.5-1.5 0-2.7-0.3-3.6-1-1-0.7-1.5-1.6-1.6-2.9-0.1-0.7 0-1.4 0.3-2 0.2-0.6 0.6-1.1 1.2-1.5 0.6-0.4 1.4-0.7 2.3-0.9 0.9-0.2 2-0.3 3.2-0.3 0 0 3.9 0.2 3.9 0.2 0 0 0-0.2 0-0.2 0.1-1-0.3-1.8-1.1-2.4-0.8-0.6-2-0.9-3.6-0.9-1 0-2 0.1-2.9 0.3-0.9 0.2-1.8 0.5-2.6 0.9 0 0-0.2-2-0.2-2 1.1-0.3 2.1-0.6 3.1-0.8 1-0.2 2-0.3 2.9-0.2 1.3 0 2.4 0.2 3.4 0.5 0.9 0.3 1.7 0.7 2.2 1.2 0.6 0.6 1 1.3 1.2 2 0.2 0.8 0.3 1.7 0.2 2.7zm7.3-8.3c0 0 3 0.7 3 0.7 0 0-0.2 0.9-0.4 1.8-0.3 0.9-0.5 1.8-0.5 1.8 0 0 1.5 0.4 2.9 0.8 1.5 0.5 2.9 0.9 2.9 0.9 0 0-0.5 1.6-0.5 1.6 0 0-1.4-0.4-2.8-0.9-1.5-0.4-2.9-0.8-2.9-0.8 0 0-0.4 1.8-0.9 3.5-0.4 1.7-0.8 3.5-0.8 3.5-0.3 1-0.3 1.7 0 2.1 0.2 0.4 0.8 0.7 1.8 1 0 0 2.4 0.7 2.4 0.7 0 0-0.5 1.7-0.5 1.7 0 0-2.4-0.7-2.4-0.7-0.9-0.3-1.6-0.5-2.2-0.8-0.6-0.3-1-0.7-1.3-1.1-0.3-0.3-0.4-0.8-0.5-1.4-0.1-0.6 0-1.3 0.2-2.1 0 0 0.3-1.8 0.7-3.5 0.3-1.8 0.7-3.5 0.7-3.5 0 0-2.1-0.4-2.1-0.4 0 0 0.3-1.6 0.3-1.6 0 0 2.1 0.4 2.1 0.4 0 0 0.2-0.9 0.4-1.9 0.2-0.9 0.4-1.8 0.4-1.8zm14.4 23.3c0 0 0.4-0.7 1-1.7 0.3-0.6 0.7-1.2 1.1-1.8 0.4-0.7 0.8-1.4 1.2-2.1 0.4-0.7 0.8-1.4 1.2-2.1 0.4-0.7 0.8-1.3 1.1-1.8 0.6-1.1 1-1.8 1-1.8 0 0 2.6 1.6 2.6 1.6 0 0-0.5 0.7-1.1 1.7-0.4 0.5-0.8 1.1-1.2 1.8-0.4 0.6-0.8 1.3-1.3 2-0.4 0.7-0.9 1.4-1.3 2-0.4 0.7-0.8 1.3-1.1 1.8-0.7 1-1.1 1.7-1.1 1.7 0 0-2.1-1.3-2.1-1.3zm7.8-13.3c0 0 1.4-2.4 1.4-2.4 0 0 2.7 1.7 2.7 1.7 0 0-1.5 2.3-1.5 2.3 0 0-2.6-1.6-2.6-1.6zm15.1 15.7c0 0-1.5 1.4-1.5 1.4-0.3-0.9-0.8-1.7-1.3-2.5-0.6-0.7-1.2-1.5-1.9-2.2-1.2-1-2.1-1.6-2.9-1.8-0.8-0.2-1.4-0.1-1.8 0.4-0.3 0.4-0.4 0.9-0.1 1.4 0.2 0.6 0.8 1.4 1.7 2.7 0 0 0.7 0.7 0.7 0.7 1.2 1.7 1.9 3.1 2 4.1 0.2 1-0.2 1.9-1 2.6-0.9 0.8-2 1-3.3 0.6-0.7-0.1-1.4-0.4-2-0.9-0.7-0.4-1.4-0.9-2.2-1.6-0.6-0.5-1.2-1.1-1.8-1.8-0.6-0.7-1.2-1.4-1.8-2.2 0 0 1.3-1.8 1.3-1.8 0.6 0.9 1.1 1.7 1.7 2.5 0.6 0.7 1.2 1.4 1.9 2 0.9 0.8 1.7 1.4 2.4 1.6 0.7 0.2 1.3 0.1 1.8-0.3 0.4-0.4 0.5-0.9 0.4-1.5-0.1-0.6-0.7-1.6-1.8-3 0 0-0.6-0.7-0.6-0.7-1.1-1.4-1.8-2.5-2.1-3.4-0.2-1-0.1-1.8 0.5-2.6 0.8-1 1.8-1.4 3.2-1.2 0.7 0.1 1.4 0.4 2.2 0.8 0.8 0.5 1.6 1.1 2.5 1.9 0.9 0.8 1.6 1.6 2.2 2.4 0.7 0.8 1.2 1.6 1.6 2.4z"/><path class="b" d="m117.5 141.9v2.4q-1.2-1.1-2.6-1.6-1.3-0.6-2.9-0.6-3 0-4.6 1.9-1.6 1.8-1.6 5.3 0 3.4 1.6 5.3 1.6 1.8 4.6 1.8 1.6 0 2.9-0.6 1.4-0.5 2.6-1.6v2.5q-1.3 0.8-2.7 1.2-1.4 0.4-2.9 0.4-4 0-6.3-2.4-2.3-2.4-2.3-6.6 0-4.2 2.3-6.7 2.3-2.4 6.3-2.4 1.6 0 2.9 0.4 1.4 0.4 2.7 1.3zm8.6 4.5q-1.7 0-2.7 1.3-1 1.4-1 3.7 0 2.4 1 3.8 1 1.3 2.7 1.3 1.7 0 2.7-1.3 1-1.4 1-3.8 0-2.3-1-3.6-1-1.4-2.7-1.4zm0-1.8q2.8 0 4.4 1.8 1.6 1.8 1.6 5 0 3.3-1.6 5.1-1.6 1.8-4.4 1.8-2.8 0-4.4-1.8-1.6-1.8-1.6-5.1 0-3.2 1.6-5 1.6-1.8 4.4-1.8zm20.5 5.5v7.9h-2.1v-7.9q0-1.8-0.8-2.7-0.7-1-2.1-1-1.8 0-2.8 1.1-1 1.2-1 3.1v7.4h-2.2v-13.1h2.2v2q0.8-1.2 1.8-1.8 1.1-0.5 2.4-0.5 2.3 0 3.5 1.4 1.1 1.4 1.1 4.1zm4.3-9h2.1v3.8h4.5v1.7h-4.5v7.1q0 1.6 0.5 2 0.4 0.5 1.8 0.5h2.2v1.8h-2.2q-2.5 0-3.5-0.9-0.9-1-0.9-3.4v-7.1h-1.6v-1.7h1.6zm20.7 9.7v1.1h-10q0.2 2.2 1.4 3.4 1.2 1.1 3.3 1.1 1.3 0 2.4-0.3 1.2-0.3 2.3-0.9v2.1q-1.1 0.5-2.3 0.7-1.3 0.3-2.5 0.3-3.1 0-5-1.9-1.8-1.8-1.8-4.9 0-3.2 1.7-5.1 1.8-1.9 4.7-1.9 2.7 0 4.2 1.7 1.6 1.7 1.6 4.6zm-9.9-0.6h7.7q0-1.8-1-2.8-1-1.1-2.6-1.1-1.8 0-2.9 1-1 1.1-1.2 2.9zm24.3-0.2v7.9h-2.2v-7.8q0-1.9-0.7-2.8-0.7-0.9-2.2-0.9-1.7 0-2.7 1.1-1 1.1-1 3v7.4h-2.2v-13.1h2.2v2q0.7-1.1 1.8-1.7 1-0.6 2.4-0.6 2.3 0 3.4 1.4 1.2 1.4 1.2 4.1zm4.3-8.9h2.1v3.7h4.5v1.7h-4.5v7.1q0 1.6 0.5 2.1 0.4 0.4 1.8 0.4h2.2v1.8h-2.2q-2.5 0-3.5-0.9-0.9-0.9-0.9-3.4v-7.1h-1.6v-1.7h1.6z"/><path class="b" d="m83.1 179.8c0 0 0.7-0.6 1.7-1.4 0.6-0.4 1.2-0.9 1.8-1.4 0.7-0.5 1.4-1.1 2.1-1.6 0.7-0.6 1.4-1.2 2.1-1.7 0.7-0.5 1.3-1 1.8-1.4 1.1-0.8 1.8-1.4 1.8-1.4 0 0 2.4 3.6 2.4 3.6 0 0-0.3 0.6-0.7 1.7-0.2 0.5-0.4 1.1-0.6 1.7-0.2 0.7-0.5 1.4-0.7 2.1-0.2 0.7-0.5 1.4-0.7 2.1-0.2 0.6-0.4 1.3-0.5 1.8-0.3 1.1-0.5 1.8-0.5 1.8 0 0 0.6-0.2 1.6-0.4 0.5-0.1 1.1-0.3 1.7-0.4 0.6-0.2 1.3-0.4 2-0.6 0.6-0.2 1.3-0.4 1.9-0.6 0.6-0.2 1.1-0.4 1.6-0.6 1-0.3 1.6-0.5 1.6-0.5 0 0 2.8 2.8 2.8 2.8 0 0-0.5 0.7-1.4 1.8-0.4 0.6-0.9 1.2-1.4 1.9-0.6 0.7-1.1 1.4-1.7 2.1-0.6 0.7-1.1 1.5-1.7 2.2-0.5 0.6-1 1.3-1.4 1.8-0.9 1.1-1.4 1.8-1.4 1.8 0 0-2.3-2.2-2.3-2.2 0 0 0.6-0.6 1.3-1.5 0.4-0.5 0.9-1 1.4-1.6 0.4-0.6 1-1.2 1.5-1.8 0.5-0.6 1-1.2 1.5-1.8 0.5-0.6 0.9-1.1 1.3-1.6 0.8-0.9 1.3-1.6 1.3-1.6 0 0-0.6 0.3-1.6 0.7-0.5 0.1-1 0.3-1.6 0.5-0.6 0.2-1.3 0.5-2 0.7-0.6 0.2-1.3 0.4-1.9 0.5-0.6 0.2-1.2 0.4-1.7 0.5-1 0.3-1.7 0.4-1.7 0.4 0 0-2.1-2.4-2.1-2.4 0 0 0.2-0.8 0.6-1.9 0.1-0.5 0.3-1.1 0.5-1.8 0.3-0.7 0.5-1.4 0.7-2.1 0.3-0.7 0.5-1.4 0.8-2.1 0.2-0.7 0.4-1.3 0.6-1.8 0.4-1 0.7-1.7 0.7-1.7 0 0-0.6 0.5-1.5 1.3-0.5 0.3-1 0.8-1.6 1.3-0.5 0.4-1.1 1-1.8 1.5-0.6 0.5-1.2 1-1.7 1.5-0.6 0.4-1.1 0.9-1.6 1.3-0.9 0.7-1.5 1.3-1.5 1.3 0 0-1.8-2.8-1.8-2.8zm29.1 16.8c-1.1-0.8-2.2-1.1-3.2-0.9-0.6 0-1.1 0.2-1.5 0.5-0.4 0.4-0.8 0.8-1.2 1.4-0.4 0.5-0.6 1.1-0.7 1.6-0.2 0.6-0.2 1.2 0 1.8 0.3 1.1 1 2.2 2.2 3 1.2 0.9 2.4 1.2 3.5 1 0.5-0.2 1-0.4 1.4-0.8 0.4-0.3 0.8-0.8 1.1-1.4 0.3-0.6 0.5-1.2 0.6-1.7 0-0.6 0-1.2-0.2-1.7-0.3-1.1-0.9-2.1-2-2.8zm0.7-1.4c0.9 0.6 1.6 1.3 2.2 2 0.6 0.6 1 1.4 1.3 2.2 0.3 0.7 0.5 1.5 0.4 2.3 0 0.9-0.2 1.7-0.6 2.5-0.4 0.8-0.9 1.5-1.5 2-0.6 0.5-1.3 0.8-2.2 0.9-0.8 0.1-1.6 0-2.6-0.2-0.9-0.3-1.8-0.8-2.8-1.5-1.1-0.7-1.9-1.5-2.5-2.3-0.6-0.8-1.1-1.6-1.3-2.5-0.3-0.9-0.3-1.7-0.2-2.5 0.1-0.8 0.5-1.6 1-2.3 0.5-0.8 1.1-1.3 1.8-1.7 0.6-0.4 1.3-0.6 2.1-0.6 0.8-0.1 1.6 0 2.4 0.4 0.8 0.2 1.7 0.7 2.5 1.3zm17.5 11.2c0 0 0.5-1.5 0.9-3 0.4-1.5 0.8-3 0.8-3 0 0 2.2 0.7 2.2 0.7 0 0-0.3 1-0.7 2.4-0.1 0.8-0.4 1.6-0.6 2.5-0.2 0.9-0.5 1.8-0.7 2.8-0.3 1-0.5 1.9-0.7 2.8-0.3 0.9-0.5 1.8-0.7 2.5-0.3 1.4-0.6 2.4-0.6 2.4 0 0-2.5-0.9-2.5-0.9 0 0 0.4-1.6 0.4-1.6-0.7 0.5-1.5 0.7-2.4 0.7-0.9 0-1.9-0.2-3.1-0.7-0.9-0.3-1.7-0.8-2.3-1.4-0.6-0.6-1.1-1.3-1.5-2.1-0.4-0.8-0.5-1.6-0.5-2.4 0-0.8 0.2-1.6 0.5-2.4 0.4-0.8 0.8-1.5 1.4-2 0.5-0.5 1.1-0.9 1.8-1.2 0.8-0.2 1.5-0.3 2.2-0.3 0.8 0.1 1.6 0.3 2.4 0.6 1 0.4 1.7 0.9 2.4 1.5 0.6 0.6 1 1.2 1.3 2.1zm-9.1 0.5c-0.2 0.6-0.4 1.3-0.4 1.8 0 0.6 0.1 1.2 0.3 1.7 0.5 1.1 1.4 1.9 2.7 2.4 1.3 0.5 2.4 0.6 3.4 0.1 0.5-0.2 0.9-0.6 1.2-1 0.4-0.5 0.6-1.1 0.8-1.7 0.2-0.7 0.3-1.3 0.3-1.9-0.1-0.6-0.2-1.1-0.4-1.6-0.5-1-1.3-1.7-2.5-2.2-1.2-0.5-2.2-0.5-3.2-0.1-0.5 0.2-0.9 0.5-1.3 0.9-0.3 0.4-0.6 1-0.9 1.6zm28.3 6.8c0 0-0.1 0.9-0.1 0.9 0 0-0.7 0-1.7-0.1-1.1-0.1-2.5-0.3-4-0.4-1.4-0.2-2.8-0.5-3.9-0.7-1.1-0.2-1.8-0.3-1.8-0.3 0 0.6 0 1.2 0.2 1.8 0.2 0.5 0.5 1 0.9 1.4 0.4 0.4 1 0.8 1.6 1.1 0.6 0.2 1.4 0.5 2.2 0.6 1 0.1 2 0.1 3 0.1 0.9-0.1 1.9-0.3 2.8-0.6 0 0-0.1 1.8-0.1 1.8-1 0.2-1.9 0.3-2.9 0.4-1.1 0-2.1 0-3.1-0.2-1.3-0.2-2.4-0.5-3.4-0.9-0.9-0.5-1.7-1-2.4-1.7-0.6-0.7-1-1.4-1.2-2.2-0.2-0.8-0.2-1.7-0.1-2.5 0.2-1 0.6-1.7 1-2.4 0.5-0.6 1.1-1.2 1.8-1.6 0.7-0.4 1.6-0.6 2.4-0.7 0.9-0.1 1.9-0.1 2.9 0 1 0.2 1.8 0.4 2.5 0.7 0.8 0.4 1.4 0.8 1.9 1.3 0.5 0.6 0.9 1.2 1.2 1.9 0.2 0.7 0.3 1.5 0.3 2.3zm-11.1-2c0 0 0.5 0.1 1.3 0.2 0.8 0.2 1.9 0.4 3 0.5 1.1 0.2 2.2 0.3 3 0.4 0.8 0.1 1.4 0.2 1.4 0.2 0-1.1-0.3-1.9-0.9-2.6-0.7-0.7-1.6-1.1-2.7-1.3-1.4-0.2-2.4-0.1-3.3 0.4-0.9 0.4-1.5 1.1-1.8 2.2zm23.3-3.7c0 0 0.2 1.9 0.2 1.9-0.2-0.1-0.5-0.2-0.9-0.2-0.3 0-0.6 0-1 0-1.3 0.1-2.3 0.5-3 1.3-0.4 0.3-0.6 0.7-0.8 1.2-0.2 0.5-0.3 1.1-0.3 1.8 0 0 0.1 1.5 0.1 3 0.1 1.5 0.1 3 0.1 3 0 0-2.7 0-2.7 0 0 0 0-0.7 0-1.8 0-0.5 0-1.1 0-1.8 0-0.7 0.1-1.4 0.1-2.1 0-0.7 0-1.4 0-2.1 0-0.7 0-1.3 0-1.8 0-1.1 0-1.8 0-1.8 0 0 2.3-0.1 2.3-0.1 0 0 0.1 1.8 0.1 1.8 0.4-0.7 1.1-1.2 1.8-1.6 0.8-0.4 1.8-0.6 2.9-0.7 0.1 0 0.3 0 0.5 0 0.2 0 0.4 0 0.6 0zm12.4 3.5c0 0-2.4 0.7-2.4 0.7-1 0.2-1.8 0.4-2.5 0.6-0.7 0.3-1.2 0.5-1.5 0.7-0.8 0.5-1.1 1.2-1 2 0.1 0.7 0.5 1.1 1.2 1.4 0.6 0.3 1.5 0.3 2.5 0.1 1.4-0.3 2.5-0.9 3.2-1.9 0.3-0.4 0.6-0.9 0.7-1.5 0.1-0.5 0-1.1-0.1-1.7 0 0-0.1-0.4-0.1-0.4zm2.2-1.4c0 0 0.1 0.4 0.3 1 0.1 0.5 0.3 1.3 0.5 2.1 0.2 0.8 0.5 1.6 0.6 2.2 0.2 0.6 0.3 1 0.3 1 0 0-2.6 0.7-2.6 0.7 0 0-0.4-1.7-0.4-1.7-0.4 0.9-1 1.6-1.9 2.1-0.8 0.5-1.8 0.9-3.1 1.2-1.6 0.3-3 0.2-4-0.3-1.1-0.5-1.6-1.3-1.8-2.4 0-0.6 0-1.2 0.3-1.7 0.2-0.6 0.6-1 1.1-1.4 0.5-0.4 1.2-0.8 2-1.1 0.8-0.3 1.7-0.6 2.8-0.9 0 0 3.4-0.8 3.4-0.8 0 0-0.1-0.2-0.1-0.2-0.2-0.8-0.7-1.4-1.5-1.6-0.8-0.3-1.8-0.3-3.1 0-0.8 0.1-1.6 0.4-2.3 0.7-0.8 0.3-1.5 0.6-2.2 1 0 0-0.2-1.7-0.2-1.7 0.8-0.4 1.6-0.7 2.4-1 0.8-0.3 1.5-0.5 2.3-0.6 1-0.3 1.9-0.4 2.7-0.4 0.8 0 1.5 0.2 2 0.5 0.6 0.2 1.2 0.6 1.6 1.2 0.4 0.5 0.7 1.2 0.9 2.1zm2.4-9.4c0 0 2.1-0.9 2.1-0.9 0 0 0.3 0.8 0.5 1.5 0.3 0.8 0.6 1.5 0.6 1.5 0 0 1.1-0.5 2.2-1 1.1-0.5 2.2-1.1 2.2-1.1 0 0 0.6 1.4 0.6 1.4 0 0-1.1 0.5-2.3 1.1-1.1 0.5-2.2 1-2.2 1 0 0 0.5 1.5 1 2.9 0.5 1.5 1 2.9 1 2.9 0.3 0.9 0.7 1.4 1.1 1.5 0.4 0.1 1.2-0.1 2.2-0.6 0 0 2.4-1.2 2.4-1.2 0 0 0.6 1.4 0.6 1.4 0 0-2.5 1.3-2.5 1.3-0.9 0.4-1.8 0.7-2.5 0.9-0.7 0.1-1.2 0.2-1.7 0.1-0.4-0.2-0.8-0.4-1.2-0.8-0.3-0.4-0.6-0.9-0.8-1.6 0 0-0.5-1.5-1-2.9-0.4-1.5-0.9-3-0.9-3 0 0-1.7 0.6-1.7 0.6 0 0-0.4-1.3-0.4-1.3 0 0 1.7-0.7 1.7-0.7 0 0-0.3-0.7-0.5-1.5-0.3-0.8-0.5-1.5-0.5-1.5zm15.2 8.7c0 0-0.3-0.6-0.7-1.6-0.2-0.4-0.5-1-0.8-1.6-0.3-0.6-0.6-1.2-0.9-1.9-0.3-0.6-0.6-1.2-0.8-1.8-0.3-0.6-0.6-1.2-0.8-1.7-0.5-0.9-0.8-1.6-0.8-1.6 0 0 2.1-1.2 2.1-1.2 0 0 0.4 0.6 0.8 1.6 0.3 0.4 0.5 1 0.8 1.6 0.3 0.6 0.7 1.2 1 1.8 0.3 0.6 0.6 1.3 0.9 1.9 0.3 0.6 0.6 1.1 0.8 1.6 0.5 0.9 0.8 1.5 0.8 1.5 0 0-2.4 1.4-2.4 1.4zm-5.6-12c0 0-1-2.1-1-2.1 0 0 2-1.2 2-1.2 0 0 1 2.1 1 2.1 0 0-2 1.2-2 1.2zm12.6-4.8c-1.1 0.9-1.7 1.9-1.9 3-0.1 0.6-0.1 1.2 0 1.7 0.1 0.6 0.3 1.2 0.7 1.7 0.3 0.6 0.7 1.1 1.2 1.4 0.4 0.3 0.9 0.5 1.5 0.6 1 0.1 2.2-0.3 3.4-1.3 1.1-1 1.8-2.1 2-3.3 0.1-0.6 0-1.1-0.1-1.7-0.2-0.6-0.4-1.1-0.8-1.6-0.4-0.6-0.9-0.9-1.4-1.2-0.4-0.3-0.9-0.4-1.4-0.5-1.1 0-2.2 0.4-3.2 1.2zm-0.9-1.2c0.9-0.7 1.7-1.3 2.5-1.6 0.8-0.4 1.6-0.6 2.3-0.7 0.8 0 1.6 0.1 2.2 0.4 0.7 0.3 1.4 0.8 1.9 1.5 0.6 0.7 1 1.5 1.2 2.3 0.2 0.8 0.2 1.6 0 2.5-0.2 0.9-0.6 1.8-1.2 2.7-0.5 0.8-1.3 1.7-2.3 2.5-0.9 0.8-1.9 1.4-2.8 1.7-0.9 0.4-1.7 0.6-2.6 0.5-0.8 0-1.5-0.3-2.2-0.7-0.6-0.4-1.1-1-1.6-1.8-0.4-0.8-0.7-1.6-0.8-2.4-0.1-0.8 0-1.6 0.2-2.5 0.2-0.8 0.6-1.5 1.2-2.3 0.5-0.7 1.2-1.4 2-2.1zm20-16c0 0 0.3 0.3 0.8 0.6 0.5 0.4 1.1 0.9 1.8 1.4 0.6 0.5 1.2 1 1.7 1.4 0.5 0.3 0.8 0.6 0.8 0.6 0 0-1.7 2.6-1.7 2.6 0 0-0.3-0.2-0.8-0.6-0.4-0.4-1.1-0.9-1.7-1.5-0.6-0.5-1.2-1-1.7-1.4-0.5-0.4-0.8-0.6-0.8-0.6-0.8-0.7-1.5-0.9-2.3-0.7-0.7 0.2-1.5 0.8-2.2 1.7-0.9 1.2-1.4 2.3-1.5 3.4-0.1 1.1 0.2 2.1 1 2.8 0 0 0.2 0.3 0.6 0.7 0.5 0.4 1 1 1.5 1.5 0.6 0.6 1.1 1.1 1.5 1.6 0.4 0.4 0.7 0.6 0.7 0.6 0 0-2 2.3-2 2.3 0 0-0.4-0.5-1.1-1.2-0.4-0.4-0.8-0.9-1.2-1.3-0.5-0.5-0.9-1-1.4-1.5-0.4-0.5-0.9-1-1.3-1.5-0.5-0.5-0.9-0.9-1.2-1.3-0.7-0.8-1.2-1.3-1.2-1.3 0 0 1.8-2 1.8-2 0 0 1.1 1.2 1.1 1.2 0-0.9 0.1-1.8 0.4-2.7 0.3-1 0.8-1.9 1.5-2.8 0.6-0.7 1.1-1.4 1.7-1.8 0.5-0.5 1.1-0.8 1.7-1 0.6-0.2 1.1-0.2 1.7-0.1 0.6 0.2 1.2 0.5 1.8 0.9z"/></svg>